<?xml version="1.0" encoding="utf-8"?>
<!-- Generator: Adobe Illustrator 22.0.0, SVG Export Plug-In . SVG Version: 6.00 Build 0)  -->
<svg version="1.1" id="Layer_1" xmlns="http://www.w3.org/2000/svg" xmlns:xlink="http://www.w3.org/1999/xlink" x="0px" y="0px"
	 viewBox="0 0 165.4 48.8" style="enable-background:new 0 0 165.4 48.8;" xml:space="preserve">
<style type="text/css">
	.st0{fill:url(#SVGID_1_);}
	.st1{fill:#202121;}
	.st2{fill:url(#SVGID_2_);}
	.st3{fill:url(#SVGID_3_);}
	.st4{fill:url(#SVGID_4_);}
	.st5{fill:url(#SVGID_5_);}
	.st6{fill:#212121;}
	.st7{fill:url(#SVGID_6_);}
	.st8{fill:url(#SVGID_7_);}
	.st9{fill:url(#SVGID_8_);}
	.st10{fill:url(#SVGID_9_);}
	.st11{fill:url(#SVGID_10_);}
	.st12{fill:url(#SVGID_11_);}
	.st13{fill:url(#SVGID_12_);}
	.st14{fill:url(#SVGID_13_);}
	.st15{fill:url(#SVGID_14_);}
	.st16{fill:url(#SVGID_15_);}
	.st17{fill:url(#SVGID_16_);}
	.st18{fill:url(#SVGID_17_);}
	.st19{fill:url(#SVGID_18_);}
	.st20{fill:url(#SVGID_19_);}
	.st21{fill:url(#SVGID_20_);}
	.st22{fill:url(#SVGID_21_);}
	.st23{fill:url(#SVGID_22_);}
	.st24{fill:url(#SVGID_23_);}
	.st25{fill:url(#SVGID_24_);}
	.st26{fill:url(#SVGID_25_);}
	.st27{fill:url(#SVGID_26_);}
	.st28{fill:url(#SVGID_27_);}
	.st29{fill:url(#SVGID_28_);}
	.st30{fill:url(#SVGID_29_);}
	.st31{fill:url(#SVGID_30_);}
	.st32{fill:url(#SVGID_31_);}
	.st33{fill:url(#SVGID_32_);}
	.st34{fill:url(#SVGID_33_);}
	.st35{fill:url(#SVGID_34_);}
	.st36{fill:url(#SVGID_35_);}
	.st37{fill:url(#SVGID_36_);}
	.st38{fill:url(#SVGID_37_);}
	.st39{fill:url(#SVGID_38_);}
	.st40{fill:url(#SVGID_39_);}
	.st41{fill:url(#SVGID_40_);}
	.st42{fill:url(#SVGID_41_);}
	.st43{fill:url(#SVGID_42_);}
	.st44{fill:url(#SVGID_43_);}
	.st45{fill:url(#SVGID_44_);}
	.st46{fill:url(#SVGID_45_);}
	.st47{fill:url(#SVGID_46_);}
	.st48{fill:url(#SVGID_47_);}
	.st49{fill:url(#SVGID_48_);}
	.st50{fill:url(#SVGID_49_);}
	.st51{fill:url(#SVGID_50_);}
	.st52{fill:url(#SVGID_51_);}
	.st53{fill:url(#SVGID_52_);}
	.st54{fill:url(#SVGID_53_);}
	.st55{fill:url(#SVGID_54_);}
	.st56{fill:url(#SVGID_55_);}
	.st57{fill:url(#SVGID_56_);}
	.st58{fill:url(#SVGID_57_);}
	.st59{fill:url(#SVGID_58_);}
	.st60{fill:url(#SVGID_59_);}
	.st61{fill:url(#SVGID_60_);}
	.st62{fill:url(#SVGID_61_);}
	.st63{fill:url(#SVGID_62_);}
	.st64{fill:url(#SVGID_63_);}
	.st65{fill:url(#SVGID_64_);}
	.st66{fill:url(#SVGID_65_);}
	.st67{fill:url(#SVGID_66_);}
	.st68{fill:url(#SVGID_67_);}
	.st69{fill:url(#SVGID_68_);}
	.st70{fill:url(#SVGID_69_);}
	.st71{fill:url(#SVGID_70_);}
</style>
<g>
	<g>
		<linearGradient id="SVGID_1_" gradientUnits="userSpaceOnUse" x1="-144.6781" y1="16.4889" x2="-119.1238" y2="16.4889">
			<stop  offset="0" style="stop-color:#8E181C"/>
			<stop  offset="5.562532e-02" style="stop-color:#961A1E"/>
			<stop  offset="0.3097" style="stop-color:#B71F27"/>
			<stop  offset="0.5566" style="stop-color:#D0232F"/>
			<stop  offset="0.7912" style="stop-color:#E02533"/>
			<stop  offset="1" style="stop-color:#E62635"/>
		</linearGradient>
		<path class="st0" d="M-144.7,15c14.9-2.7,25.6,3.7,25.6,3.7s-9.5-3.9-24-2.4"/>
		<path class="st1" d="M-170.5,22.5c11.6-8,31.6-6.3,39.5-9.3s17.6-9.8,32.3-10.7S-58.9,13-51,9.9c-9.4,4.7-36.1,3.5-44.4,0.1
			c11.9,1.4,17.1,1.5,20-1.7c-16.9-7.2-39.8-3.7-46.7,4.1C-128.9,20.3-145.9,11.3-170.5,22.5z"/>
		<path class="st1" d="M-144.7,14.8c14.9-2.7,25.6,3.9,25.6,3.9s-8-4-22.6-2.4"/>
		<linearGradient id="SVGID_2_" gradientUnits="userSpaceOnUse" x1="-170.4939" y1="11.8472" x2="-51.0124" y2="11.8472">
			<stop  offset="0" style="stop-color:#8E181C"/>
			<stop  offset="5.562532e-02" style="stop-color:#961A1E"/>
			<stop  offset="0.3097" style="stop-color:#B71F27"/>
			<stop  offset="0.5566" style="stop-color:#D0232F"/>
			<stop  offset="0.7912" style="stop-color:#E02533"/>
			<stop  offset="1" style="stop-color:#E62635"/>
		</linearGradient>
		<path class="st2" d="M-170.5,21.8c11.6-8,31.6-6.3,39.5-9.3s17.6-9.8,32.3-10.7S-58.9,12.4-51,9.3c-9.4,4.7-36.1,3.5-44.4,0.1
			c11.9,1.4,17.1,1.5,20-1.7C-92.2,0.5-115.2,4-122,11.8C-128.9,19.6-145.9,10.6-170.5,21.8z"/>
	</g>
	<g>
		<g>
			<linearGradient id="SVGID_3_" gradientUnits="userSpaceOnUse" x1="-65.4695" y1="27.085" x2="-29.6653" y2="27.085">
				<stop  offset="0" style="stop-color:#8E181C"/>
				<stop  offset="5.562532e-02" style="stop-color:#961A1E"/>
				<stop  offset="0.3097" style="stop-color:#B71F27"/>
				<stop  offset="0.5566" style="stop-color:#D0232F"/>
				<stop  offset="0.7912" style="stop-color:#E02533"/>
				<stop  offset="1" style="stop-color:#E62635"/>
			</linearGradient>
			<path class="st3" d="M-29.7,27.1c-6,0.2-11.9,0.3-17.9,0.4c-3,0.1-6,0.2-9,0.1c-3-0.1-6-0.2-9-0.5V27c3-0.3,6-0.4,9-0.5
				c3-0.1,6,0.1,9,0.1c6,0.1,11.9,0.2,17.9,0.4V27.1z"/>
		</g>
		<g>
			<linearGradient id="SVGID_4_" gradientUnits="userSpaceOnUse" x1="-65.4695" y1="34.4075" x2="-39.7226" y2="34.4075">
				<stop  offset="0" style="stop-color:#8E181C"/>
				<stop  offset="5.562532e-02" style="stop-color:#961A1E"/>
				<stop  offset="0.3097" style="stop-color:#B71F27"/>
				<stop  offset="0.5566" style="stop-color:#D0232F"/>
				<stop  offset="0.7912" style="stop-color:#E02533"/>
				<stop  offset="1" style="stop-color:#E62635"/>
			</linearGradient>
			<path class="st4" d="M-39.7,34.5c-4.3,0.2-8.6,0.3-12.9,0.4c-2.1,0.1-4.3,0.2-6.4,0.1c-2.1-0.1-4.3-0.2-6.4-0.5v-0.1
				c2.1-0.3,4.3-0.5,6.4-0.5c2.1-0.1,4.3,0.1,6.4,0.1c4.3,0.1,8.6,0.2,12.9,0.4V34.5z"/>
		</g>
		<g>
			<linearGradient id="SVGID_5_" gradientUnits="userSpaceOnUse" x1="-72.9339" y1="30.7463" x2="-12.5897" y2="30.7463">
				<stop  offset="0" style="stop-color:#8E181C"/>
				<stop  offset="5.562532e-02" style="stop-color:#961A1E"/>
				<stop  offset="0.3097" style="stop-color:#B71F27"/>
				<stop  offset="0.5566" style="stop-color:#D0232F"/>
				<stop  offset="0.7912" style="stop-color:#E02533"/>
				<stop  offset="1" style="stop-color:#E62635"/>
			</linearGradient>
			<path class="st5" d="M-12.6,30.8c-10.1,0.2-20.1,0.3-30.2,0.4c-5,0.1-10.1,0.2-15.1,0.1c-5-0.1-10.1-0.2-15.1-0.5v-0.1
				c5-0.3,10.1-0.4,15.1-0.5c5-0.1,10.1,0.1,15.1,0.1c10.1,0.1,20.1,0.2,30.2,0.4V30.8z"/>
		</g>
	</g>
	<g>
		<g>
			<path class="st6" d="M-32.1,20.2c-6,0.2-11.9,0.3-17.9,0.4c-3,0.1-6,0.2-9,0.1c-3-0.1-6-0.2-9-0.5v-0.1c3-0.3,6-0.4,9-0.5
				c3-0.1,6,0.1,9,0.1c6,0.1,11.9,0.2,17.9,0.4V20.2z"/>
		</g>
		<g>
			<path class="st6" d="M-42.2,27.5c-4.3,0.2-8.6,0.3-12.9,0.4c-2.1,0.1-4.3,0.2-6.4,0.1c-2.1-0.1-4.3-0.2-6.4-0.5v-0.1
				c2.1-0.3,4.3-0.5,6.4-0.5c2.1-0.1,4.3,0.1,6.4,0.1c4.3,0.1,8.6,0.2,12.9,0.4V27.5z"/>
		</g>
		<g>
			<path class="st6" d="M-15,23.9c-10.1,0.2-20.1,0.3-30.2,0.4c-5,0.1-10.1,0.2-15.1,0.1c-5-0.1-10.1-0.2-15.1-0.5v-0.1
				c5-0.3,10.1-0.4,15.1-0.5c5-0.1,10.1,0.1,15.1,0.1c10.1,0.1,20.1,0.2,30.2,0.4V23.9z"/>
		</g>
	</g>
	<g>
		<g>
			<linearGradient id="SVGID_6_" gradientUnits="userSpaceOnUse" x1="-87.5779" y1="22.9621" x2="-83.6433" y2="22.9621">
				<stop  offset="0" style="stop-color:#8E181C"/>
				<stop  offset="5.562532e-02" style="stop-color:#961A1E"/>
				<stop  offset="0.3097" style="stop-color:#B71F27"/>
				<stop  offset="0.5566" style="stop-color:#D0232F"/>
				<stop  offset="0.7912" style="stop-color:#E02533"/>
				<stop  offset="1" style="stop-color:#E62635"/>
			</linearGradient>
			<path class="st7" d="M-83.7,26.2c0.1,0.6-0.3,0.9-0.7,0.3c0,0,0,0,0-0.1c0,0,0-0.1-0.1-0.1c0,0-0.3-0.9-0.3-0.9
				c-0.1,0-0.3,0-0.4,0c-0.6-0.1-0.9-0.7-0.8-1.2c0.1-0.3,0.2-0.5,0.4-0.6l-2-4.6l2.4,4.4c0.1,0,0.2,0,0.4,0
				c0.6,0.1,0.9,0.7,0.8,1.2c0,0.2-0.2,0.4-0.3,0.5C-84.3,25.2-83.7,26.2-83.7,26.2z M-84.3,24.6c0.1-0.4-0.2-0.7-0.5-0.8
				c-0.4-0.1-0.7,0.2-0.8,0.5c-0.1,0.4,0.2,0.7,0.5,0.8C-84.8,25.2-84.4,24.9-84.3,24.6z"/>
		</g>
	</g>
	<path class="st1" d="M-161,29h2.4c0.5,0.6,0.8,1.3,0.8,2c0,0.8-0.3,1.5-0.9,2.1c-0.6,0.6-1.4,0.8-2.2,0.8c-1.2,0-2.1-0.4-2.9-1.3
		c-0.8-0.9-1.2-1.9-1.2-3.2c0-1.3,0.4-2.3,1.2-3.2c0.8-0.8,1.8-1.3,3.1-1.3c0.4,0,0.9,0.1,1.4,0.3v2.5c-0.4-0.2-0.8-0.3-1.1-0.3
		c-0.6,0-1.1,0.2-1.5,0.6c-0.4,0.4-0.6,0.9-0.6,1.4c0,0.6,0.2,1.1,0.5,1.4c0.3,0.4,0.8,0.5,1.4,0.5c0.4,0,0.6-0.1,0.6-0.3
		c0-0.2-0.1-0.2-0.4-0.2h-0.6V29z"/>
	<path class="st1" d="M-153.6,29.5v2.2h-0.7v2h-2.5v-5.4c0-1,0.3-1.9,0.9-2.4c0.6-0.6,1.4-0.9,2.4-0.9c1,0,1.7,0.3,2.2,0.8
		c0.5,0.5,0.7,1.3,0.7,2.4v5.5h-2.5v-5.3c0-0.3,0-0.6-0.1-0.7c-0.1-0.1-0.2-0.2-0.4-0.2c-0.4,0-0.6,0.3-0.6,0.9v1.1H-153.6z"/>
	<path class="st1" d="M-146.6,27.5v6.2h-2.5v-8.5h3.3c1,0,1.8,0.2,2.3,0.7c0.6,0.5,0.9,1.2,0.9,2.1c0,0.9-0.4,1.6-1.1,2.2l1.5,3.5
		h-2.7l-1.2-2.7v-2.2h0.2c0.5,0,0.8-0.2,0.8-0.7c0-0.4-0.3-0.6-0.9-0.6H-146.6z"/>
	<path class="st1" d="M-138.4,29.5v2.2h-0.7v2h-2.5v-5.4c0-1,0.3-1.9,0.9-2.4c0.6-0.6,1.4-0.9,2.4-0.9c1,0,1.7,0.3,2.2,0.8
		c0.5,0.5,0.7,1.3,0.7,2.4v5.5h-2.5v-5.3c0-0.3,0-0.6-0.1-0.7c-0.1-0.1-0.2-0.2-0.4-0.2c-0.4,0-0.6,0.3-0.6,0.9v1.1H-138.4z"/>
	<path class="st1" d="M-130.4,29h2.4c0.5,0.6,0.8,1.3,0.8,2c0,0.8-0.3,1.5-0.9,2.1c-0.6,0.6-1.4,0.8-2.2,0.8c-1.2,0-2.1-0.4-2.9-1.3
		c-0.8-0.9-1.2-1.9-1.2-3.2c0-1.3,0.4-2.3,1.2-3.2c0.8-0.8,1.8-1.3,3.1-1.3c0.4,0,0.9,0.1,1.4,0.3v2.5c-0.4-0.2-0.8-0.3-1.1-0.3
		c-0.6,0-1.1,0.2-1.5,0.6c-0.4,0.4-0.6,0.9-0.6,1.4c0,0.6,0.2,1.1,0.5,1.4c0.3,0.4,0.8,0.5,1.4,0.5c0.4,0,0.6-0.1,0.6-0.3
		c0-0.2-0.1-0.2-0.4-0.2h-0.6V29z"/>
	<path class="st1" d="M-121.6,28.6v1.9h-1.7c-0.2,0-0.4,0-0.5,0.1c-0.1,0.1-0.1,0.2-0.1,0.3c0,0.2,0,0.3,0.1,0.4
		c0.1,0.1,0.3,0.1,0.6,0.1h1.7v2.4h-2c-0.9,0-1.7-0.2-2.1-0.7c-0.5-0.4-0.7-1.1-0.7-1.9v-3.3c0-0.8,0.2-1.4,0.7-1.9
		c0.5-0.4,1.1-0.7,2-0.7h2.2v2.4h-1.6c-0.4,0-0.7,0.1-0.7,0.4c0,0.2,0.1,0.3,0.2,0.3c0.1,0.1,0.3,0.1,0.6,0.1H-121.6z"/>
	<linearGradient id="SVGID_7_" gradientUnits="userSpaceOnUse" x1="-86.5908" y1="30.7572" x2="-77.5506" y2="30.7572">
		<stop  offset="0" style="stop-color:#8E181C"/>
		<stop  offset="5.562532e-02" style="stop-color:#961A1E"/>
		<stop  offset="0.3097" style="stop-color:#B71F27"/>
		<stop  offset="0.5566" style="stop-color:#D0232F"/>
		<stop  offset="0.7912" style="stop-color:#E02533"/>
		<stop  offset="1" style="stop-color:#E62635"/>
	</linearGradient>
	<path class="st8" d="M-82,26.2c1.2,0,2.3,0.4,3.1,1.3c0.9,0.9,1.3,1.9,1.3,3.2c0,1.3-0.4,2.3-1.3,3.2c-0.9,0.9-1.9,1.3-3.2,1.3
		c-1.2,0-2.3-0.4-3.2-1.3c-0.9-0.9-1.3-1.9-1.3-3.2c0-1.3,0.4-2.3,1.3-3.2C-84.4,26.7-83.3,26.2-82,26.2z M-82.1,28.8
		c-0.5,0-1,0.2-1.3,0.6s-0.6,0.9-0.6,1.4s0.2,1,0.6,1.4s0.8,0.6,1.3,0.6c0.5,0,1-0.2,1.3-0.6c0.4-0.4,0.6-0.9,0.6-1.4
		c0-0.6-0.2-1-0.6-1.4C-81.1,29-81.5,28.8-82.1,28.8z"/>
	<g>
		<g>
			<path class="st1" d="M-113.9,30.7v-2.2c0.5,0,0.8-0.2,0.8-0.6c0-0.4-0.2-0.5-0.6-0.5c-0.4,0-0.6,0.2-0.6,0.7v5.6h-2.5v-5.3
				c0-0.5,0.1-1,0.2-1.4c0.1-0.4,0.3-0.7,0.6-1c0.3-0.3,0.7-0.6,1.1-0.8c0.4-0.2,0.9-0.3,1.4-0.3c0.9,0,1.6,0.3,2.2,0.9
				c0.6,0.6,0.9,1.3,0.9,2.2c0,0.8-0.3,1.5-0.8,2c-0.5,0.5-1.2,0.7-2.2,0.7L-113.9,30.7z"/>
			<path class="st1" d="M-106.4,29.4v2.2h-0.7v2h-2.5v-5.4c0-1,0.3-1.9,0.9-2.4c0.6-0.6,1.4-0.9,2.4-0.9c1,0,1.7,0.3,2.2,0.8
				c0.5,0.5,0.7,1.3,0.7,2.4v5.5h-2.5v-5.3c0-0.3,0-0.6-0.1-0.7c-0.1-0.1-0.2-0.2-0.4-0.2c-0.4,0-0.6,0.3-0.6,0.9v1.1H-106.4z"/>
			<path class="st1" d="M-99.4,27.4v6.2h-2.5v-8.5h3.3c1,0,1.8,0.2,2.3,0.7c0.6,0.5,0.9,1.2,0.9,2.1c0,0.9-0.4,1.6-1.1,2.2l1.5,3.5
				h-2.7l-1.2-2.7v-2.2h0.2c0.5,0,0.8-0.2,0.8-0.7c0-0.4-0.3-0.6-0.9-0.6H-99.4z"/>
			<path class="st1" d="M-91.8,27.4v6.2h-2.5v-8.5h3.3c1,0,1.8,0.2,2.3,0.7c0.6,0.5,0.9,1.2,0.9,2.1c0,0.9-0.4,1.6-1.1,2.2l1.5,3.5
				h-2.7l-1.2-2.7v-2.2h0.2c0.5,0,0.8-0.2,0.8-0.7c0-0.4-0.3-0.6-0.9-0.6H-91.8z"/>
			<path class="st1" d="M-73.3,27.6v6.1h-2.5v-6.1h-1.9v-2.4h6.4v2.4H-73.3z"/>
		</g>
	</g>
	<g>
		<linearGradient id="SVGID_8_" gradientUnits="userSpaceOnUse" x1="-164.8935" y1="41.7291" x2="-163.0061" y2="41.7291">
			<stop  offset="0" style="stop-color:#8E181C"/>
			<stop  offset="5.562532e-02" style="stop-color:#961A1E"/>
			<stop  offset="0.3097" style="stop-color:#B71F27"/>
			<stop  offset="0.5566" style="stop-color:#D0232F"/>
			<stop  offset="0.7912" style="stop-color:#E02533"/>
			<stop  offset="1" style="stop-color:#E62635"/>
		</linearGradient>
		<path class="st9" d="M-163,39.9v1c-0.1,0-0.1,0-0.2,0c-0.1,0-0.2,0-0.2,0.1c-0.1,0.1-0.1,0.1-0.1,0.2c0,0.1,0,0.2,0.1,0.3l0.1,0.1
			c0.1,0.3,0.2,0.5,0.2,0.7c0,0.4-0.1,0.7-0.4,0.9c-0.3,0.2-0.6,0.4-0.9,0.4c-0.2,0-0.3,0-0.5-0.1v-1.1c0.1,0.1,0.2,0.1,0.3,0.1
			c0.1,0,0.2,0,0.2-0.1c0.1-0.1,0.1-0.1,0.1-0.2c0-0.1-0.1-0.2-0.2-0.3c-0.2-0.3-0.2-0.6-0.2-0.9c0-0.3,0.1-0.6,0.4-0.9
			s0.5-0.4,0.9-0.4C-163.3,39.8-163.1,39.8-163,39.9z"/>
		<linearGradient id="SVGID_9_" gradientUnits="userSpaceOnUse" x1="-162.6797" y1="42.2154" x2="-159.9178" y2="42.2154">
			<stop  offset="0" style="stop-color:#8E181C"/>
			<stop  offset="5.562532e-02" style="stop-color:#961A1E"/>
			<stop  offset="0.3097" style="stop-color:#B71F27"/>
			<stop  offset="0.5566" style="stop-color:#D0232F"/>
			<stop  offset="0.7912" style="stop-color:#E02533"/>
			<stop  offset="1" style="stop-color:#E62635"/>
		</linearGradient>
		<path class="st10" d="M-159.9,42.4h-1.5c0-0.1,0-0.1,0-0.2c0-0.1,0-0.2,0-0.3h0.5c0-0.2-0.1-0.3-0.3-0.3c-0.1,0-0.2,0.1-0.3,0.2
			c-0.1,0.1-0.1,0.2-0.1,0.4c0,0.2,0,0.3,0.1,0.4c0.1,0.1,0.2,0.2,0.3,0.2c0.1,0,0.2,0,0.3-0.1l0.6,0.7c-0.3,0.2-0.6,0.3-0.9,0.3
			c-0.4,0-0.7-0.1-1-0.4c-0.3-0.3-0.4-0.6-0.4-1c0-0.4,0.1-0.7,0.4-1c0.3-0.3,0.6-0.4,1-0.4c0.4,0,0.7,0.1,1,0.4s0.4,0.6,0.4,1
			C-159.9,42.2-159.9,42.3-159.9,42.4z"/>
		<linearGradient id="SVGID_10_" gradientUnits="userSpaceOnUse" x1="-159.5167" y1="42.1903" x2="-158.0627" y2="42.1903">
			<stop  offset="0" style="stop-color:#8E181C"/>
			<stop  offset="5.562532e-02" style="stop-color:#961A1E"/>
			<stop  offset="0.3097" style="stop-color:#B71F27"/>
			<stop  offset="0.5566" style="stop-color:#D0232F"/>
			<stop  offset="0.7912" style="stop-color:#E02533"/>
			<stop  offset="1" style="stop-color:#E62635"/>
		</linearGradient>
		<path class="st11" d="M-158.1,40.9v1.1c-0.1,0-0.1-0.1-0.2-0.1c-0.2,0-0.3,0.1-0.3,0.4v1.3h-1v-1.4c0-0.4,0.1-0.7,0.3-0.9
			c0.2-0.2,0.5-0.3,0.8-0.3C-158.3,40.8-158.2,40.8-158.1,40.9z"/>
		<linearGradient id="SVGID_11_" gradientUnits="userSpaceOnUse" x1="-158.2407" y1="42.27" x2="-155.7794" y2="42.27">
			<stop  offset="0" style="stop-color:#8E181C"/>
			<stop  offset="5.562532e-02" style="stop-color:#961A1E"/>
			<stop  offset="0.3097" style="stop-color:#B71F27"/>
			<stop  offset="0.5566" style="stop-color:#D0232F"/>
			<stop  offset="0.7912" style="stop-color:#E02533"/>
			<stop  offset="1" style="stop-color:#E62635"/>
		</linearGradient>
		<path class="st12" d="M-155.8,40.9l-1.2,2.8l-1.2-2.8h0.9l0.3,0.7l0.3-0.7H-155.8z"/>
		<linearGradient id="SVGID_12_" gradientUnits="userSpaceOnUse" x1="-155.6733" y1="41.6267" x2="-154.6762" y2="41.6267">
			<stop  offset="0" style="stop-color:#8E181C"/>
			<stop  offset="5.562532e-02" style="stop-color:#961A1E"/>
			<stop  offset="0.3097" style="stop-color:#B71F27"/>
			<stop  offset="0.5566" style="stop-color:#D0232F"/>
			<stop  offset="0.7912" style="stop-color:#E02533"/>
			<stop  offset="1" style="stop-color:#E62635"/>
		</linearGradient>
		<path class="st13" d="M-154.7,40.9v2.6h-1v-2.6H-154.7z M-155.2,39.7c0.1,0,0.3,0,0.3,0.1s0.1,0.2,0.1,0.3c0,0.1,0,0.3-0.1,0.3
			c-0.1,0.1-0.2,0.1-0.4,0.1c-0.1,0-0.3,0-0.4-0.1c-0.1-0.1-0.1-0.2-0.1-0.3c0-0.1,0-0.2,0.1-0.3C-155.4,39.8-155.3,39.7-155.2,39.7
			z"/>
		<linearGradient id="SVGID_13_" gradientUnits="userSpaceOnUse" x1="-154.2378" y1="42.2182" x2="-151.4814" y2="42.2182">
			<stop  offset="0" style="stop-color:#8E181C"/>
			<stop  offset="5.562532e-02" style="stop-color:#961A1E"/>
			<stop  offset="0.3097" style="stop-color:#B71F27"/>
			<stop  offset="0.5566" style="stop-color:#D0232F"/>
			<stop  offset="0.7912" style="stop-color:#E02533"/>
			<stop  offset="1" style="stop-color:#E62635"/>
		</linearGradient>
		<path class="st14" d="M-152.5,42.3l1,0c0,0.4-0.2,0.7-0.4,0.9s-0.6,0.4-0.9,0.4c-0.4,0-0.7-0.1-1-0.4s-0.4-0.6-0.4-1
			c0-0.4,0.1-0.7,0.4-1c0.3-0.3,0.6-0.4,1-0.4c0.3,0,0.6,0.1,0.9,0.3c0.3,0.2,0.4,0.5,0.5,0.8l-1,0c-0.1-0.1-0.2-0.2-0.3-0.2
			c-0.1,0-0.2,0-0.3,0.1c-0.1,0.1-0.1,0.2-0.1,0.3c0,0.1,0,0.2,0.1,0.3c0.1,0.1,0.2,0.1,0.3,0.1C-152.7,42.6-152.5,42.5-152.5,42.3z
			"/>
		<linearGradient id="SVGID_14_" gradientUnits="userSpaceOnUse" x1="-151.1943" y1="42.2154" x2="-148.4324" y2="42.2154">
			<stop  offset="0" style="stop-color:#8E181C"/>
			<stop  offset="5.562532e-02" style="stop-color:#961A1E"/>
			<stop  offset="0.3097" style="stop-color:#B71F27"/>
			<stop  offset="0.5566" style="stop-color:#D0232F"/>
			<stop  offset="0.7912" style="stop-color:#E02533"/>
			<stop  offset="1" style="stop-color:#E62635"/>
		</linearGradient>
		<path class="st15" d="M-148.4,42.4h-1.5c0-0.1,0-0.1,0-0.2c0-0.1,0-0.2,0-0.3h0.5c0-0.2-0.1-0.3-0.3-0.3c-0.1,0-0.2,0.1-0.3,0.2
			c-0.1,0.1-0.1,0.2-0.1,0.4c0,0.2,0,0.3,0.1,0.4c0.1,0.1,0.2,0.2,0.3,0.2c0.1,0,0.2,0,0.3-0.1l0.6,0.7c-0.3,0.2-0.6,0.3-0.9,0.3
			c-0.4,0-0.7-0.1-1-0.4c-0.3-0.3-0.4-0.6-0.4-1c0-0.4,0.1-0.7,0.4-1c0.3-0.3,0.6-0.4,1-0.4c0.4,0,0.7,0.1,1,0.4
			c0.3,0.3,0.4,0.6,0.4,1C-148.4,42.2-148.4,42.3-148.4,42.4z"/>
		<linearGradient id="SVGID_15_" gradientUnits="userSpaceOnUse" x1="-146.3251" y1="41.7291" x2="-143.4465" y2="41.7291">
			<stop  offset="0" style="stop-color:#8E181C"/>
			<stop  offset="5.562532e-02" style="stop-color:#961A1E"/>
			<stop  offset="0.3097" style="stop-color:#B71F27"/>
			<stop  offset="0.5566" style="stop-color:#D0232F"/>
			<stop  offset="0.7912" style="stop-color:#E02533"/>
			<stop  offset="1" style="stop-color:#E62635"/>
		</linearGradient>
		<path class="st16" d="M-144.5,42h0.7c0,0.1,0,0.1,0,0.2c0,0.2-0.1,0.4-0.2,0.6l0.5,0.8h-0.9l-0.1-0.1c-0.2,0.1-0.4,0.2-0.6,0.2
			c-0.3,0-0.6-0.1-0.8-0.3c-0.2-0.2-0.3-0.5-0.3-0.8c0-0.4,0.2-0.7,0.5-0.9c-0.2-0.2-0.3-0.4-0.3-0.7c0-0.3,0.1-0.5,0.3-0.7
			c0.2-0.2,0.4-0.3,0.7-0.3c0.3,0,0.5,0.1,0.7,0.3c0.2,0.2,0.3,0.4,0.3,0.7c0,0,0,0.1,0,0.1h-0.8c0-0.2-0.1-0.3-0.2-0.3
			c-0.1,0-0.2,0.1-0.2,0.2c0,0,0,0.1,0,0.1L-144.5,42z M-145.3,42.2c-0.1,0.1-0.1,0.1-0.1,0.2c0,0.1,0,0.2,0.1,0.2
			c0.1,0.1,0.1,0.1,0.2,0.1c0.1,0,0.1,0,0.2-0.1L-145.3,42.2z"/>
		<linearGradient id="SVGID_16_" gradientUnits="userSpaceOnUse" x1="-141.0858" y1="41.7291" x2="-138.1912" y2="41.7291">
			<stop  offset="0" style="stop-color:#8E181C"/>
			<stop  offset="5.562532e-02" style="stop-color:#961A1E"/>
			<stop  offset="0.3097" style="stop-color:#B71F27"/>
			<stop  offset="0.5566" style="stop-color:#D0232F"/>
			<stop  offset="0.7912" style="stop-color:#E02533"/>
			<stop  offset="1" style="stop-color:#E62635"/>
		</linearGradient>
		<path class="st17" d="M-140,40.9v2.7h-1.1v-3.6h1.4c0.4,0,0.7,0.1,1,0.3c0.3,0.2,0.4,0.5,0.4,0.9c0,0.4-0.2,0.7-0.5,0.9l0.6,1.5
			h-1.1l-0.5-1.2v-0.9h0.1c0.2,0,0.3-0.1,0.3-0.3c0-0.2-0.1-0.3-0.4-0.3H-140z"/>
		<linearGradient id="SVGID_17_" gradientUnits="userSpaceOnUse" x1="-138.0509" y1="41.8035" x2="-135.2891" y2="41.8035">
			<stop  offset="0" style="stop-color:#8E181C"/>
			<stop  offset="5.562532e-02" style="stop-color:#961A1E"/>
			<stop  offset="0.3097" style="stop-color:#B71F27"/>
			<stop  offset="0.5566" style="stop-color:#D0232F"/>
			<stop  offset="0.7912" style="stop-color:#E02533"/>
			<stop  offset="1" style="stop-color:#E62635"/>
		</linearGradient>
		<path class="st18" d="M-135.3,42.4h-1.5c0-0.1,0-0.1,0-0.2c0-0.1,0-0.2,0-0.3h0.5c0-0.2-0.1-0.3-0.3-0.3c-0.1,0-0.2,0.1-0.3,0.2
			c-0.1,0.1-0.1,0.2-0.1,0.4c0,0.2,0,0.3,0.1,0.4c0.1,0.1,0.2,0.2,0.3,0.2c0.1,0,0.2,0,0.3-0.1l0.6,0.7c-0.3,0.2-0.6,0.3-0.9,0.3
			c-0.4,0-0.7-0.1-1-0.4c-0.3-0.3-0.4-0.6-0.4-1c0-0.4,0.1-0.7,0.4-1c0.3-0.3,0.6-0.4,1-0.4c0.4,0,0.7,0.1,1,0.4s0.4,0.6,0.4,1
			C-135.3,42.2-135.3,42.3-135.3,42.4z M-136.4,40h0.6l-0.6,0.6h-0.6L-136.4,40z"/>
		<linearGradient id="SVGID_18_" gradientUnits="userSpaceOnUse" x1="-134.9461" y1="42.682" x2="-132.1741" y2="42.682">
			<stop  offset="0" style="stop-color:#8E181C"/>
			<stop  offset="5.562532e-02" style="stop-color:#961A1E"/>
			<stop  offset="0.3097" style="stop-color:#B71F27"/>
			<stop  offset="0.5566" style="stop-color:#D0232F"/>
			<stop  offset="0.7912" style="stop-color:#E02533"/>
			<stop  offset="1" style="stop-color:#E62635"/>
		</linearGradient>
		<path class="st19" d="M-134,44.5h-1v-2.2c0-0.4,0.1-0.7,0.3-1c0.1-0.1,0.3-0.3,0.5-0.4c0.2-0.1,0.4-0.1,0.6-0.1
			c0.4,0,0.7,0.1,1,0.4c0.3,0.3,0.4,0.6,0.4,1c0,0.4-0.1,0.7-0.4,1c-0.3,0.3-0.6,0.4-1,0.4c-0.1,0-0.1,0-0.3,0v-1.1
			c0.1,0.1,0.2,0.1,0.2,0.1c0.1,0,0.2,0,0.3-0.1c0.1-0.1,0.1-0.2,0.1-0.3c0-0.1,0-0.2-0.1-0.3c-0.1-0.1-0.2-0.1-0.3-0.1
			c-0.3,0-0.4,0.2-0.4,0.5V44.5z"/>
		<linearGradient id="SVGID_19_" gradientUnits="userSpaceOnUse" x1="-131.8841" y1="42.2194" x2="-129.1172" y2="42.2194">
			<stop  offset="0" style="stop-color:#8E181C"/>
			<stop  offset="5.562532e-02" style="stop-color:#961A1E"/>
			<stop  offset="0.3097" style="stop-color:#B71F27"/>
			<stop  offset="0.5566" style="stop-color:#D0232F"/>
			<stop  offset="0.7912" style="stop-color:#E02533"/>
			<stop  offset="1" style="stop-color:#E62635"/>
		</linearGradient>
		<path class="st20" d="M-130.3,42.5v1c-0.1,0-0.2,0-0.2,0c-0.4,0-0.7-0.1-1-0.4c-0.3-0.3-0.4-0.6-0.4-1c0-0.4,0.1-0.7,0.4-1
			c0.3-0.3,0.6-0.4,1-0.4c0.4,0,0.8,0.1,1,0.4c0.2,0.3,0.4,0.6,0.4,1v1.3h-1v-1.2c0-0.1,0-0.3-0.1-0.3c-0.1-0.1-0.2-0.1-0.3-0.1
			c-0.1,0-0.2,0-0.3,0.1s-0.1,0.2-0.1,0.3c0,0.1,0,0.2,0.1,0.3c0.1,0.1,0.2,0.1,0.3,0.1C-130.4,42.6-130.3,42.6-130.3,42.5z"/>
		<linearGradient id="SVGID_20_" gradientUnits="userSpaceOnUse" x1="-128.5381" y1="42.1903" x2="-127.0841" y2="42.1903">
			<stop  offset="0" style="stop-color:#8E181C"/>
			<stop  offset="5.562532e-02" style="stop-color:#961A1E"/>
			<stop  offset="0.3097" style="stop-color:#B71F27"/>
			<stop  offset="0.5566" style="stop-color:#D0232F"/>
			<stop  offset="0.7912" style="stop-color:#E02533"/>
			<stop  offset="1" style="stop-color:#E62635"/>
		</linearGradient>
		<path class="st21" d="M-127.1,40.9v1.1c-0.1,0-0.1-0.1-0.2-0.1c-0.2,0-0.3,0.1-0.3,0.4v1.3h-1v-1.4c0-0.4,0.1-0.7,0.3-0.9
			c0.2-0.2,0.5-0.3,0.8-0.3C-127.3,40.8-127.2,40.8-127.1,40.9z"/>
		<linearGradient id="SVGID_21_" gradientUnits="userSpaceOnUse" x1="-126.9379" y1="42.2194" x2="-124.171" y2="42.2194">
			<stop  offset="0" style="stop-color:#8E181C"/>
			<stop  offset="5.562532e-02" style="stop-color:#961A1E"/>
			<stop  offset="0.3097" style="stop-color:#B71F27"/>
			<stop  offset="0.5566" style="stop-color:#D0232F"/>
			<stop  offset="0.7912" style="stop-color:#E02533"/>
			<stop  offset="1" style="stop-color:#E62635"/>
		</linearGradient>
		<path class="st22" d="M-125.3,42.5v1c-0.1,0-0.2,0-0.2,0c-0.4,0-0.7-0.1-1-0.4c-0.3-0.3-0.4-0.6-0.4-1c0-0.4,0.1-0.7,0.4-1
			c0.3-0.3,0.6-0.4,1-0.4c0.4,0,0.8,0.1,1,0.4c0.2,0.3,0.4,0.6,0.4,1v1.3h-1v-1.2c0-0.1,0-0.3-0.1-0.3c-0.1-0.1-0.2-0.1-0.3-0.1
			c-0.1,0-0.2,0-0.3,0.1c-0.1,0.1-0.1,0.2-0.1,0.3c0,0.1,0,0.2,0.1,0.3c0.1,0.1,0.2,0.1,0.3,0.1C-125.5,42.6-125.4,42.6-125.3,42.5z
			"/>
		<linearGradient id="SVGID_22_" gradientUnits="userSpaceOnUse" x1="-123.7003" y1="41.7489" x2="-122.2412" y2="41.7489">
			<stop  offset="0" style="stop-color:#8E181C"/>
			<stop  offset="5.562532e-02" style="stop-color:#961A1E"/>
			<stop  offset="0.3097" style="stop-color:#B71F27"/>
			<stop  offset="0.5566" style="stop-color:#D0232F"/>
			<stop  offset="0.7912" style="stop-color:#E02533"/>
			<stop  offset="1" style="stop-color:#E62635"/>
		</linearGradient>
		<path class="st23" d="M-122.7,39.9v1h0.4V42h-0.4c0,0.2,0,0.4,0.1,0.4c0.1,0.1,0.2,0.1,0.4,0.1v1c-0.1,0-0.1,0-0.1,0
			c-0.2,0-0.4-0.1-0.6-0.2c-0.2-0.1-0.4-0.2-0.5-0.4c-0.2-0.2-0.2-0.5-0.2-0.9v-2.2H-122.7z"/>
		<linearGradient id="SVGID_23_" gradientUnits="userSpaceOnUse" x1="-121.771" y1="41.6267" x2="-120.7739" y2="41.6267">
			<stop  offset="0" style="stop-color:#8E181C"/>
			<stop  offset="5.562532e-02" style="stop-color:#961A1E"/>
			<stop  offset="0.3097" style="stop-color:#B71F27"/>
			<stop  offset="0.5566" style="stop-color:#D0232F"/>
			<stop  offset="0.7912" style="stop-color:#E02533"/>
			<stop  offset="1" style="stop-color:#E62635"/>
		</linearGradient>
		<path class="st24" d="M-120.8,40.9v2.6h-1v-2.6H-120.8z M-121.3,39.7c0.1,0,0.3,0,0.3,0.1s0.1,0.2,0.1,0.3c0,0.1,0,0.3-0.1,0.3
			c-0.1,0.1-0.2,0.1-0.4,0.1c-0.1,0-0.3,0-0.4-0.1c-0.1-0.1-0.1-0.2-0.1-0.3c0-0.1,0-0.2,0.1-0.3C-121.5,39.8-121.4,39.7-121.3,39.7
			z"/>
		<linearGradient id="SVGID_24_" gradientUnits="userSpaceOnUse" x1="-120.3539" y1="42.2168" x2="-117.5657" y2="42.2168">
			<stop  offset="0" style="stop-color:#8E181C"/>
			<stop  offset="5.562532e-02" style="stop-color:#961A1E"/>
			<stop  offset="0.3097" style="stop-color:#B71F27"/>
			<stop  offset="0.5566" style="stop-color:#D0232F"/>
			<stop  offset="0.7912" style="stop-color:#E02533"/>
			<stop  offset="1" style="stop-color:#E62635"/>
		</linearGradient>
		<path class="st25" d="M-118.9,40.8c0.4,0,0.7,0.1,1,0.4c0.3,0.3,0.4,0.6,0.4,1c0,0.4-0.1,0.7-0.4,1c-0.3,0.3-0.6,0.4-1,0.4
			c-0.4,0-0.7-0.1-1-0.4c-0.3-0.3-0.4-0.6-0.4-1c0-0.4,0.1-0.7,0.4-1C-119.7,41-119.3,40.8-118.9,40.8z M-119,41.8
			c-0.1,0-0.2,0-0.3,0.1c-0.1,0.1-0.1,0.2-0.1,0.3c0,0.1,0,0.2,0.1,0.3c0.1,0.1,0.2,0.1,0.3,0.1c0.1,0,0.2,0,0.3-0.1
			c0.1-0.1,0.1-0.2,0.1-0.3c0-0.1,0-0.2-0.1-0.3C-118.8,41.9-118.9,41.8-119,41.8z"/>
		<linearGradient id="SVGID_25_" gradientUnits="userSpaceOnUse" x1="-117.1513" y1="42.1903" x2="-114.7882" y2="42.1903">
			<stop  offset="0" style="stop-color:#8E181C"/>
			<stop  offset="5.562532e-02" style="stop-color:#961A1E"/>
			<stop  offset="0.3097" style="stop-color:#B71F27"/>
			<stop  offset="0.5566" style="stop-color:#D0232F"/>
			<stop  offset="0.7912" style="stop-color:#E02533"/>
			<stop  offset="1" style="stop-color:#E62635"/>
		</linearGradient>
		<path class="st26" d="M-114.8,43.5h-1V42c0-0.2-0.1-0.2-0.2-0.2c-0.1,0-0.2,0.1-0.2,0.2v1.5h-1v-1.5c0-0.3,0.1-0.6,0.3-0.9
			s0.5-0.4,0.8-0.4c0.4,0,0.7,0.1,0.9,0.4c0.2,0.2,0.3,0.5,0.3,0.9V43.5z"/>
		<linearGradient id="SVGID_26_" gradientUnits="userSpaceOnUse" x1="-112.994" y1="42.2194" x2="-110.227" y2="42.2194">
			<stop  offset="0" style="stop-color:#8E181C"/>
			<stop  offset="5.562532e-02" style="stop-color:#961A1E"/>
			<stop  offset="0.3097" style="stop-color:#B71F27"/>
			<stop  offset="0.5566" style="stop-color:#D0232F"/>
			<stop  offset="0.7912" style="stop-color:#E02533"/>
			<stop  offset="1" style="stop-color:#E62635"/>
		</linearGradient>
		<path class="st27" d="M-111.4,42.5v1c-0.1,0-0.2,0-0.2,0c-0.4,0-0.7-0.1-1-0.4c-0.3-0.3-0.4-0.6-0.4-1c0-0.4,0.1-0.7,0.4-1
			c0.3-0.3,0.6-0.4,1-0.4c0.4,0,0.8,0.1,1,0.4c0.2,0.3,0.4,0.6,0.4,1v1.3h-1v-1.2c0-0.1,0-0.3-0.1-0.3c-0.1-0.1-0.2-0.1-0.3-0.1
			c-0.1,0-0.2,0-0.3,0.1s-0.1,0.2-0.1,0.3c0,0.1,0,0.2,0.1,0.3c0.1,0.1,0.2,0.1,0.3,0.1C-111.5,42.6-111.4,42.6-111.4,42.5z"/>
		<linearGradient id="SVGID_27_" gradientUnits="userSpaceOnUse" x1="-109.6479" y1="42.2818" x2="-107.2848" y2="42.2818">
			<stop  offset="0" style="stop-color:#8E181C"/>
			<stop  offset="5.562532e-02" style="stop-color:#961A1E"/>
			<stop  offset="0.3097" style="stop-color:#B71F27"/>
			<stop  offset="0.5566" style="stop-color:#D0232F"/>
			<stop  offset="0.7912" style="stop-color:#E02533"/>
			<stop  offset="1" style="stop-color:#E62635"/>
		</linearGradient>
		<path class="st28" d="M-109.6,40.9h1v1.5c0,0.2,0.1,0.2,0.2,0.2c0.1,0,0.2-0.1,0.2-0.2v-1.5h1v1.5c0,0.3-0.1,0.6-0.3,0.9
			c-0.2,0.2-0.5,0.4-0.8,0.4c-0.4,0-0.7-0.1-0.9-0.4c-0.2-0.2-0.3-0.5-0.3-0.9V40.9z"/>
		<linearGradient id="SVGID_28_" gradientUnits="userSpaceOnUse" x1="-106.8142" y1="41.7489" x2="-105.3551" y2="41.7489">
			<stop  offset="0" style="stop-color:#8E181C"/>
			<stop  offset="5.562532e-02" style="stop-color:#961A1E"/>
			<stop  offset="0.3097" style="stop-color:#B71F27"/>
			<stop  offset="0.5566" style="stop-color:#D0232F"/>
			<stop  offset="0.7912" style="stop-color:#E02533"/>
			<stop  offset="1" style="stop-color:#E62635"/>
		</linearGradient>
		<path class="st29" d="M-105.8,39.9v1h0.4V42h-0.4c0,0.2,0,0.4,0.1,0.4c0.1,0.1,0.2,0.1,0.4,0.1v1c-0.1,0-0.1,0-0.1,0
			c-0.2,0-0.4-0.1-0.6-0.2c-0.2-0.1-0.4-0.2-0.5-0.4c-0.2-0.2-0.2-0.5-0.2-0.9v-2.2H-105.8z"/>
		<linearGradient id="SVGID_29_" gradientUnits="userSpaceOnUse" x1="-105.0467" y1="42.2168" x2="-102.2585" y2="42.2168">
			<stop  offset="0" style="stop-color:#8E181C"/>
			<stop  offset="5.562532e-02" style="stop-color:#961A1E"/>
			<stop  offset="0.3097" style="stop-color:#B71F27"/>
			<stop  offset="0.5566" style="stop-color:#D0232F"/>
			<stop  offset="0.7912" style="stop-color:#E02533"/>
			<stop  offset="1" style="stop-color:#E62635"/>
		</linearGradient>
		<path class="st30" d="M-103.6,40.8c0.4,0,0.7,0.1,1,0.4c0.3,0.3,0.4,0.6,0.4,1c0,0.4-0.1,0.7-0.4,1c-0.3,0.3-0.6,0.4-1,0.4
			c-0.4,0-0.7-0.1-1-0.4c-0.3-0.3-0.4-0.6-0.4-1c0-0.4,0.1-0.7,0.4-1C-104.4,41-104,40.8-103.6,40.8z M-103.7,41.8
			c-0.1,0-0.2,0-0.3,0.1c-0.1,0.1-0.1,0.2-0.1,0.3c0,0.1,0,0.2,0.1,0.3c0.1,0.1,0.2,0.1,0.3,0.1c0.1,0,0.2,0,0.3-0.1
			c0.1-0.1,0.1-0.2,0.1-0.3c0-0.1,0-0.2-0.1-0.3C-103.5,41.9-103.5,41.8-103.7,41.8z"/>
		<linearGradient id="SVGID_30_" gradientUnits="userSpaceOnUse" x1="-101.844" y1="42.1915" x2="-98.2077" y2="42.1915">
			<stop  offset="0" style="stop-color:#8E181C"/>
			<stop  offset="5.562532e-02" style="stop-color:#961A1E"/>
			<stop  offset="0.3097" style="stop-color:#B71F27"/>
			<stop  offset="0.5566" style="stop-color:#D0232F"/>
			<stop  offset="0.7912" style="stop-color:#E02533"/>
			<stop  offset="1" style="stop-color:#E62635"/>
		</linearGradient>
		<path class="st31" d="M-98.2,43.5h-1v-1.4c0-0.1,0-0.2,0-0.2c0,0-0.1-0.1-0.1-0.1c-0.1,0-0.2,0.1-0.2,0.3v1.4h-1v-1.4
			c0-0.1,0-0.2,0-0.2c0,0-0.1-0.1-0.1-0.1c-0.1,0-0.2,0.1-0.2,0.3v1.4h-1v-1.6c0-0.3,0.1-0.6,0.3-0.8c0.2-0.2,0.4-0.3,0.7-0.3
			c0.3,0,0.6,0.1,0.8,0.4c0.3-0.2,0.5-0.4,0.8-0.4c0.3,0,0.6,0.1,0.8,0.4c0.2,0.2,0.2,0.5,0.2,0.8V43.5z"/>
		<linearGradient id="SVGID_31_" gradientUnits="userSpaceOnUse" x1="-97.7877" y1="42.2168" x2="-94.9995" y2="42.2168">
			<stop  offset="0" style="stop-color:#8E181C"/>
			<stop  offset="5.562532e-02" style="stop-color:#961A1E"/>
			<stop  offset="0.3097" style="stop-color:#B71F27"/>
			<stop  offset="0.5566" style="stop-color:#D0232F"/>
			<stop  offset="0.7912" style="stop-color:#E02533"/>
			<stop  offset="1" style="stop-color:#E62635"/>
		</linearGradient>
		<path class="st32" d="M-96.4,40.8c0.4,0,0.7,0.1,1,0.4c0.3,0.3,0.4,0.6,0.4,1c0,0.4-0.1,0.7-0.4,1c-0.3,0.3-0.6,0.4-1,0.4
			c-0.4,0-0.7-0.1-1-0.4c-0.3-0.3-0.4-0.6-0.4-1c0-0.4,0.1-0.7,0.4-1C-97.1,41-96.8,40.8-96.4,40.8z M-96.4,41.8
			c-0.1,0-0.2,0-0.3,0.1c-0.1,0.1-0.1,0.2-0.1,0.3c0,0.1,0,0.2,0.1,0.3c0.1,0.1,0.2,0.1,0.3,0.1c0.1,0,0.2,0,0.3-0.1
			c0.1-0.1,0.1-0.2,0.1-0.3c0-0.1,0-0.2-0.1-0.3C-96.2,41.9-96.3,41.8-96.4,41.8z"/>
		<linearGradient id="SVGID_32_" gradientUnits="userSpaceOnUse" x1="-94.6432" y1="41.7556" x2="-91.8711" y2="41.7556">
			<stop  offset="0" style="stop-color:#8E181C"/>
			<stop  offset="5.562532e-02" style="stop-color:#961A1E"/>
			<stop  offset="0.3097" style="stop-color:#B71F27"/>
			<stop  offset="0.5566" style="stop-color:#D0232F"/>
			<stop  offset="0.7912" style="stop-color:#E02533"/>
			<stop  offset="1" style="stop-color:#E62635"/>
		</linearGradient>
		<path class="st33" d="M-93.6,39.9v2.2c0,0.4,0.1,0.5,0.4,0.5c0.1,0,0.2,0,0.3-0.1c0.1-0.1,0.1-0.2,0.1-0.3c0-0.1,0-0.2-0.1-0.3
			c-0.1-0.1-0.2-0.1-0.3-0.1c-0.1,0-0.2,0-0.2,0.1v-1.1c0.1,0,0.2,0,0.3,0c0.4,0,0.7,0.1,1,0.4c0.3,0.3,0.4,0.6,0.4,1
			c0,0.4-0.1,0.7-0.4,1c-0.3,0.3-0.6,0.4-1,0.4c-0.2,0-0.4,0-0.6-0.1c-0.2-0.1-0.3-0.2-0.5-0.4c-0.2-0.3-0.3-0.6-0.3-1v-2.2H-93.6z"
			/>
		<linearGradient id="SVGID_33_" gradientUnits="userSpaceOnUse" x1="-91.4354" y1="41.6267" x2="-90.4384" y2="41.6267">
			<stop  offset="0" style="stop-color:#8E181C"/>
			<stop  offset="5.562532e-02" style="stop-color:#961A1E"/>
			<stop  offset="0.3097" style="stop-color:#B71F27"/>
			<stop  offset="0.5566" style="stop-color:#D0232F"/>
			<stop  offset="0.7912" style="stop-color:#E02533"/>
			<stop  offset="1" style="stop-color:#E62635"/>
		</linearGradient>
		<path class="st34" d="M-90.4,40.9v2.6h-1v-2.6H-90.4z M-90.9,39.7c0.1,0,0.3,0,0.3,0.1c0.1,0.1,0.1,0.2,0.1,0.3
			c0,0.1,0,0.3-0.1,0.3c-0.1,0.1-0.2,0.1-0.4,0.1s-0.3,0-0.4-0.1c-0.1-0.1-0.1-0.2-0.1-0.3c0-0.1,0-0.2,0.1-0.3
			C-91.2,39.8-91.1,39.7-90.9,39.7z"/>
		<linearGradient id="SVGID_34_" gradientUnits="userSpaceOnUse" x1="-89.8565" y1="41.7291" x2="-88.8622" y2="41.7291">
			<stop  offset="0" style="stop-color:#8E181C"/>
			<stop  offset="5.562532e-02" style="stop-color:#961A1E"/>
			<stop  offset="0.3097" style="stop-color:#B71F27"/>
			<stop  offset="0.5566" style="stop-color:#D0232F"/>
			<stop  offset="0.7912" style="stop-color:#E02533"/>
			<stop  offset="1" style="stop-color:#E62635"/>
		</linearGradient>
		<path class="st35" d="M-88.9,39.9v3.6h-1v-3.6H-88.9z"/>
		<linearGradient id="SVGID_35_" gradientUnits="userSpaceOnUse" x1="-88.4265" y1="42.2154" x2="-85.6646" y2="42.2154">
			<stop  offset="0" style="stop-color:#8E181C"/>
			<stop  offset="5.562532e-02" style="stop-color:#961A1E"/>
			<stop  offset="0.3097" style="stop-color:#B71F27"/>
			<stop  offset="0.5566" style="stop-color:#D0232F"/>
			<stop  offset="0.7912" style="stop-color:#E02533"/>
			<stop  offset="1" style="stop-color:#E62635"/>
		</linearGradient>
		<path class="st36" d="M-85.7,42.4h-1.5c0-0.1,0-0.1,0-0.2c0-0.1,0-0.2,0-0.3h0.5c0-0.2-0.1-0.3-0.3-0.3c-0.1,0-0.2,0.1-0.3,0.2
			c-0.1,0.1-0.1,0.2-0.1,0.4c0,0.2,0,0.3,0.1,0.4c0.1,0.1,0.2,0.2,0.3,0.2c0.1,0,0.2,0,0.3-0.1l0.6,0.7c-0.3,0.2-0.6,0.3-0.9,0.3
			c-0.4,0-0.7-0.1-1-0.4c-0.3-0.3-0.4-0.6-0.4-1c0-0.4,0.1-0.7,0.4-1c0.3-0.3,0.6-0.4,1-0.4c0.4,0,0.7,0.1,1,0.4
			c0.3,0.3,0.4,0.6,0.4,1C-85.7,42.2-85.7,42.3-85.7,42.4z"/>
	</g>
</g>
<g>
	<g>
		<linearGradient id="SVGID_36_" gradientUnits="userSpaceOnUse" x1="101.6411" y1="38.0628" x2="142.5029" y2="38.0628">
			<stop  offset="0" style="stop-color:#8E181C"/>
			<stop  offset="5.562532e-02" style="stop-color:#961A1E"/>
			<stop  offset="0.3097" style="stop-color:#B71F27"/>
			<stop  offset="0.5566" style="stop-color:#D0232F"/>
			<stop  offset="0.7912" style="stop-color:#E02533"/>
			<stop  offset="1" style="stop-color:#E62635"/>
		</linearGradient>
		<path class="st37" d="M142.5,38.1l-10.2,0.3l-10.2,0.2c-3.4,0.1-6.8,0.2-10.2,0.1c-3.4-0.1-6.8-0.2-10.2-0.6V38
			c3.4-0.4,6.8-0.5,10.2-0.6c3.4-0.1,6.8,0.1,10.2,0.1l10.2,0.2l10.2,0.3V38.1z"/>
	</g>
	<g>
		<linearGradient id="SVGID_37_" gradientUnits="userSpaceOnUse" x1="101.6411" y1="46.4197" x2="131.0249" y2="46.4197">
			<stop  offset="0" style="stop-color:#8E181C"/>
			<stop  offset="5.562532e-02" style="stop-color:#961A1E"/>
			<stop  offset="0.3097" style="stop-color:#B71F27"/>
			<stop  offset="0.5566" style="stop-color:#D0232F"/>
			<stop  offset="0.7912" style="stop-color:#E02533"/>
			<stop  offset="1" style="stop-color:#E62635"/>
		</linearGradient>
		<path class="st38" d="M131,46.5l-7.3,0.3l-7.3,0.2c-2.4,0.1-4.9,0.2-7.3,0.1c-2.4-0.1-4.9-0.2-7.3-0.6v-0.1
			c2.4-0.4,4.9-0.5,7.3-0.6c2.4-0.1,4.9,0.1,7.3,0.1l7.3,0.2l7.3,0.3V46.5z"/>
	</g>
	<g>
		<linearGradient id="SVGID_38_" gradientUnits="userSpaceOnUse" x1="93.1223" y1="42.2413" x2="161.9905" y2="42.2413">
			<stop  offset="0" style="stop-color:#8E181C"/>
			<stop  offset="5.562532e-02" style="stop-color:#961A1E"/>
			<stop  offset="0.3097" style="stop-color:#B71F27"/>
			<stop  offset="0.5566" style="stop-color:#D0232F"/>
			<stop  offset="0.7912" style="stop-color:#E02533"/>
			<stop  offset="1" style="stop-color:#E62635"/>
		</linearGradient>
		<path class="st39" d="M162,42.3l-17.2,0.3l-17.2,0.2c-5.7,0.1-11.5,0.2-17.2,0.1c-5.7-0.1-11.5-0.2-17.2-0.6v-0.1
			c5.7-0.4,11.5-0.5,17.2-0.6c5.7-0.1,11.5,0.1,17.2,0.1l17.2,0.2l17.2,0.3V42.3z"/>
	</g>
</g>
<g>
	<g>
		<path class="st6" d="M146,30.2l-10.2,0.3l-10.2,0.2c-3.4,0.1-6.8,0.2-10.2,0.1c-3.4-0.1-6.8-0.2-10.2-0.6v-0.1
			c3.4-0.4,6.8-0.5,10.2-0.6c3.4-0.1,6.8,0.1,10.2,0.1l10.2,0.2l10.2,0.3V30.2z"/>
	</g>
	<g>
		<path class="st6" d="M134.5,38.6l-7.3,0.3l-7.3,0.2c-2.4,0.1-4.9,0.2-7.3,0.1c-2.4-0.1-4.9-0.2-7.3-0.6v-0.1
			c2.4-0.4,4.9-0.5,7.3-0.6c2.4-0.1,4.9,0.1,7.3,0.1l7.3,0.2l7.3,0.3V38.6z"/>
	</g>
	<g>
		<path class="st6" d="M165.5,34.4l-17.2,0.3L131,34.9c-5.7,0.1-11.5,0.2-17.2,0.1c-5.7-0.1-11.5-0.2-17.2-0.6v-0.1
			c5.7-0.4,11.5-0.5,17.2-0.6c5.7-0.1,11.5,0.1,17.2,0.1l17.2,0.2l17.2,0.3V34.4z"/>
	</g>
</g>
<g>
	<g>
		<linearGradient id="SVGID_39_" gradientUnits="userSpaceOnUse" x1="89.0242" y1="24.222" x2="93.5146" y2="24.222">
			<stop  offset="0" style="stop-color:#8E181C"/>
			<stop  offset="5.562532e-02" style="stop-color:#961A1E"/>
			<stop  offset="0.3097" style="stop-color:#B71F27"/>
			<stop  offset="0.5566" style="stop-color:#D0232F"/>
			<stop  offset="0.7912" style="stop-color:#E02533"/>
			<stop  offset="1" style="stop-color:#E62635"/>
		</linearGradient>
		<path class="st40" d="M93.5,28c0.2,0.7-0.4,1-0.8,0.3c0,0,0,0,0-0.1c0-0.1-0.1-0.1-0.1-0.2c0,0-0.3-1-0.3-1c-0.1,0-0.3,0-0.5,0
			c-0.6-0.1-1-0.8-0.9-1.4c0.1-0.3,0.2-0.5,0.4-0.7L89,19.8l2.8,5c0.1,0,0.3,0,0.4,0c0.6,0.1,1,0.8,0.9,1.4
			c-0.1,0.2-0.2,0.5-0.3,0.6C92.8,26.8,93.5,27.9,93.5,28z M92.7,26.1c0.1-0.4-0.2-0.8-0.6-0.9c-0.4-0.1-0.8,0.2-0.9,0.6
			c-0.1,0.4,0.2,0.8,0.6,0.9C92.2,26.7,92.6,26.5,92.7,26.1z"/>
	</g>
</g>
<path class="st1" d="M5.3,31.1H8c0.6,0.7,0.9,1.5,0.9,2.3c0,0.9-0.3,1.7-1,2.4c-0.7,0.6-1.6,1-2.6,1c-1.3,0-2.4-0.5-3.4-1.5
	c-0.9-1-1.4-2.2-1.4-3.7C0.6,30.2,1,29,2,28c0.9-1,2.1-1.4,3.5-1.4c0.5,0,1,0.1,1.6,0.3v2.9c-0.5-0.2-0.9-0.3-1.2-0.3
	c-0.7,0-1.2,0.2-1.7,0.6c-0.4,0.4-0.6,1-0.6,1.6c0,0.7,0.2,1.2,0.6,1.6C4.5,33.8,5.1,34,5.8,34c0.4,0,0.6-0.1,0.6-0.4
	c0-0.2-0.1-0.3-0.4-0.3H5.3V31.1z"/>
<path class="st1" d="M13.6,31.7v2.6h-0.8v2.3H9.9v-6.2c0-1.2,0.3-2.1,1-2.8c0.7-0.7,1.6-1,2.8-1c1.1,0,2,0.3,2.5,0.9
	c0.5,0.6,0.8,1.5,0.8,2.8v6.3h-2.9v-6.1c0-0.4,0-0.6-0.1-0.8c-0.1-0.1-0.3-0.2-0.5-0.2c-0.5,0-0.7,0.3-0.7,1v1.2H13.6z"/>
<path class="st1" d="M21.6,29.4v7.1h-2.9v-9.7h3.7c1.1,0,2,0.3,2.6,0.8c0.7,0.6,1,1.4,1,2.4c0,1-0.4,1.8-1.3,2.5l1.7,4h-3l-1.4-3.1
	v-2.5h0.2c0.6,0,0.9-0.3,0.9-0.8c0-0.5-0.4-0.7-1.1-0.7H21.6z"/>
<path class="st1" d="M31,31.7v2.6h-0.8v2.3h-2.9v-6.2c0-1.2,0.3-2.1,1-2.8c0.7-0.7,1.6-1,2.8-1c1.1,0,2,0.3,2.5,0.9
	c0.5,0.6,0.8,1.5,0.8,2.8v6.3h-2.9v-6.1c0-0.4,0-0.6-0.1-0.8c-0.1-0.1-0.3-0.2-0.5-0.2c-0.5,0-0.7,0.3-0.7,1v1.2H31z"/>
<path class="st1" d="M40.2,31.1H43c0.6,0.7,0.9,1.5,0.9,2.3c0,0.9-0.3,1.7-1,2.4c-0.7,0.6-1.6,1-2.6,1c-1.3,0-2.4-0.5-3.4-1.5
	c-0.9-1-1.4-2.2-1.4-3.7c0-1.4,0.5-2.6,1.4-3.6c0.9-1,2.1-1.4,3.5-1.4c0.5,0,1,0.1,1.6,0.3v2.9c-0.5-0.2-0.9-0.3-1.2-0.3
	c-0.7,0-1.2,0.2-1.7,0.6c-0.4,0.4-0.6,1-0.6,1.6c0,0.7,0.2,1.2,0.6,1.6c0.4,0.4,0.9,0.6,1.6,0.6c0.4,0,0.6-0.1,0.6-0.4
	c0-0.2-0.1-0.3-0.4-0.3h-0.7V31.1z"/>
<path class="st1" d="M50.2,30.6v2.2h-1.9c-0.3,0-0.4,0-0.5,0.1c-0.1,0.1-0.2,0.2-0.2,0.4c0,0.2,0.1,0.3,0.2,0.4
	c0.1,0.1,0.3,0.1,0.7,0.1h1.9v2.8h-2.3c-1.1,0-1.9-0.3-2.4-0.8c-0.6-0.5-0.8-1.2-0.8-2.2v-3.8c0-0.9,0.3-1.7,0.8-2.2
	c0.5-0.5,1.3-0.8,2.3-0.8h2.5v2.8h-1.8c-0.5,0-0.7,0.2-0.7,0.5c0,0.2,0.1,0.3,0.2,0.4c0.1,0.1,0.3,0.1,0.6,0.1H50.2z"/>
<linearGradient id="SVGID_40_" gradientUnits="userSpaceOnUse" x1="90.1508" y1="33.1183" x2="100.4679" y2="33.1183">
	<stop  offset="0" style="stop-color:#8E181C"/>
	<stop  offset="5.562532e-02" style="stop-color:#961A1E"/>
	<stop  offset="0.3097" style="stop-color:#B71F27"/>
	<stop  offset="0.5566" style="stop-color:#D0232F"/>
	<stop  offset="0.7912" style="stop-color:#E02533"/>
	<stop  offset="1" style="stop-color:#E62635"/>
</linearGradient>
<path class="st41" d="M95.4,28c1.4,0,2.6,0.5,3.6,1.5c1,1,1.5,2.2,1.5,3.6c0,1.4-0.5,2.7-1.5,3.7c-1,1-2.2,1.5-3.7,1.5
	c-1.4,0-2.6-0.5-3.6-1.5c-1-1-1.5-2.2-1.5-3.6c0-1.4,0.5-2.7,1.5-3.7C92.7,28.5,93.9,28,95.4,28z M95.3,30.9c-0.6,0-1.1,0.2-1.5,0.7
	c-0.4,0.4-0.6,1-0.6,1.6c0,0.6,0.2,1.2,0.6,1.6c0.4,0.4,0.9,0.7,1.5,0.7c0.6,0,1.1-0.2,1.5-0.7c0.4-0.4,0.6-1,0.6-1.6
	s-0.2-1.2-0.6-1.6C96.4,31.1,95.9,30.9,95.3,30.9z"/>
<g>
	<g>
		<path class="st1" d="M59,33.1v-2.5c0.6,0,0.9-0.2,0.9-0.7c0-0.4-0.2-0.6-0.7-0.6c-0.5,0-0.7,0.3-0.7,0.8v6.4h-2.9v-6.1
			c0-0.6,0.1-1.1,0.2-1.5c0.1-0.4,0.3-0.8,0.6-1.1c0.3-0.4,0.8-0.7,1.3-0.9c0.5-0.2,1-0.3,1.6-0.3c1,0,1.8,0.3,2.5,1
			c0.7,0.7,1,1.5,1,2.5c0,1-0.3,1.7-0.9,2.3c-0.6,0.5-1.4,0.8-2.5,0.8L59,33.1z"/>
		<path class="st1" d="M67.5,31.5v2.6h-0.8v2.3h-2.9v-6.2c0-1.2,0.3-2.1,1-2.8c0.7-0.7,1.6-1,2.8-1c1.1,0,2,0.3,2.5,0.9
			c0.5,0.6,0.8,1.5,0.8,2.8v6.3H68v-6.1c0-0.4,0-0.6-0.1-0.8c-0.1-0.1-0.3-0.2-0.5-0.2c-0.5,0-0.7,0.3-0.7,1v1.2H67.5z"/>
		<path class="st1" d="M75.5,29.3v7.1h-2.9v-9.7h3.7c1.1,0,2,0.3,2.6,0.8c0.7,0.6,1,1.4,1,2.4c0,1-0.4,1.8-1.3,2.5l1.7,4h-3
			l-1.4-3.1v-2.5h0.2c0.6,0,0.9-0.3,0.9-0.8c0-0.5-0.4-0.7-1.1-0.7H75.5z"/>
		<path class="st1" d="M84.2,29.3v7.1h-2.9v-9.7h3.7c1.1,0,2,0.3,2.6,0.8c0.7,0.6,1,1.4,1,2.4c0,1-0.4,1.8-1.3,2.5l1.7,4h-3
			l-1.4-3.1v-2.5h0.2c0.6,0,0.9-0.3,0.9-0.8c0-0.5-0.4-0.7-1.1-0.7H84.2z"/>
		<path class="st1" d="M105.3,29.5v6.9h-2.9v-6.9h-2.2v-2.8h7.3v2.8H105.3z"/>
	</g>
</g>
<g>
	<linearGradient id="SVGID_41_" gradientUnits="userSpaceOnUse" x1="0.7873" y1="45.64" x2="2.9412" y2="45.64">
		<stop  offset="0" style="stop-color:#8E181C"/>
		<stop  offset="5.562532e-02" style="stop-color:#961A1E"/>
		<stop  offset="0.3097" style="stop-color:#B71F27"/>
		<stop  offset="0.5566" style="stop-color:#D0232F"/>
		<stop  offset="0.7912" style="stop-color:#E02533"/>
		<stop  offset="1" style="stop-color:#E62635"/>
	</linearGradient>
	<path class="st42" d="M2.9,43.6v1.2c-0.1,0-0.2,0-0.2,0c-0.1,0-0.2,0-0.2,0.1c-0.1,0.1-0.1,0.2-0.1,0.2c0,0.1,0,0.2,0.1,0.3
		l0.1,0.2c0.2,0.3,0.3,0.6,0.3,0.9c0,0.4-0.1,0.7-0.4,1c-0.3,0.3-0.6,0.4-1,0.4c-0.2,0-0.4,0-0.6-0.1v-1.2c0.1,0.1,0.2,0.1,0.3,0.1
		c0.1,0,0.2,0,0.3-0.1c0.1-0.1,0.1-0.1,0.1-0.2c0-0.1-0.1-0.2-0.2-0.4c-0.2-0.3-0.3-0.6-0.3-1c0-0.4,0.1-0.7,0.4-1
		c0.3-0.3,0.6-0.4,1-0.4C2.6,43.5,2.8,43.5,2.9,43.6z"/>
	<linearGradient id="SVGID_42_" gradientUnits="userSpaceOnUse" x1="3.3138" y1="46.195" x2="6.4657" y2="46.195">
		<stop  offset="0" style="stop-color:#8E181C"/>
		<stop  offset="5.562532e-02" style="stop-color:#961A1E"/>
		<stop  offset="0.3097" style="stop-color:#B71F27"/>
		<stop  offset="0.5566" style="stop-color:#D0232F"/>
		<stop  offset="0.7912" style="stop-color:#E02533"/>
		<stop  offset="1" style="stop-color:#E62635"/>
	</linearGradient>
	<path class="st43" d="M6.5,46.4H4.7c0-0.1,0-0.2,0-0.2c0-0.1,0-0.2,0.1-0.3h0.6c0-0.2-0.2-0.3-0.4-0.3c-0.1,0-0.3,0.1-0.3,0.2
		c-0.1,0.1-0.1,0.3-0.1,0.5c0,0.2,0,0.4,0.1,0.5c0.1,0.1,0.2,0.2,0.3,0.2c0.1,0,0.2-0.1,0.3-0.2l0.6,0.8c-0.3,0.2-0.6,0.4-1,0.4
		c-0.4,0-0.8-0.2-1.1-0.5c-0.3-0.3-0.5-0.7-0.5-1.1c0-0.4,0.2-0.8,0.5-1.1c0.3-0.3,0.7-0.5,1.1-0.5c0.4,0,0.8,0.1,1.1,0.4
		c0.3,0.3,0.4,0.7,0.4,1.1C6.5,46.2,6.5,46.3,6.5,46.4z"/>
	<linearGradient id="SVGID_43_" gradientUnits="userSpaceOnUse" x1="6.9235" y1="46.1664" x2="8.5829" y2="46.1664">
		<stop  offset="0" style="stop-color:#8E181C"/>
		<stop  offset="5.562532e-02" style="stop-color:#961A1E"/>
		<stop  offset="0.3097" style="stop-color:#B71F27"/>
		<stop  offset="0.5566" style="stop-color:#D0232F"/>
		<stop  offset="0.7912" style="stop-color:#E02533"/>
		<stop  offset="1" style="stop-color:#E62635"/>
	</linearGradient>
	<path class="st44" d="M8.6,44.7v1.2c-0.1,0-0.2-0.1-0.2-0.1c-0.2,0-0.3,0.2-0.3,0.5v1.4H6.9v-1.7c0-0.4,0.1-0.8,0.4-1
		c0.2-0.3,0.6-0.4,1-0.4C8.3,44.6,8.4,44.6,8.6,44.7z"/>
	<linearGradient id="SVGID_44_" gradientUnits="userSpaceOnUse" x1="8.3798" y1="46.2574" x2="11.1888" y2="46.2574">
		<stop  offset="0" style="stop-color:#8E181C"/>
		<stop  offset="5.562532e-02" style="stop-color:#961A1E"/>
		<stop  offset="0.3097" style="stop-color:#B71F27"/>
		<stop  offset="0.5566" style="stop-color:#D0232F"/>
		<stop  offset="0.7912" style="stop-color:#E02533"/>
		<stop  offset="1" style="stop-color:#E62635"/>
	</linearGradient>
	<path class="st45" d="M11.2,44.7l-1.4,3.1l-1.4-3.1h1.1l0.3,0.8l0.4-0.8H11.2z"/>
	<linearGradient id="SVGID_45_" gradientUnits="userSpaceOnUse" x1="11.3098" y1="45.5232" x2="12.4478" y2="45.5232">
		<stop  offset="0" style="stop-color:#8E181C"/>
		<stop  offset="5.562532e-02" style="stop-color:#961A1E"/>
		<stop  offset="0.3097" style="stop-color:#B71F27"/>
		<stop  offset="0.5566" style="stop-color:#D0232F"/>
		<stop  offset="0.7912" style="stop-color:#E02533"/>
		<stop  offset="1" style="stop-color:#E62635"/>
	</linearGradient>
	<path class="st46" d="M12.4,44.7v3h-1.1v-3H12.4z M11.9,43.3c0.2,0,0.3,0.1,0.4,0.2s0.2,0.2,0.2,0.4c0,0.2-0.1,0.3-0.2,0.4
		c-0.1,0.1-0.2,0.2-0.4,0.2s-0.3-0.1-0.4-0.2c-0.1-0.1-0.2-0.2-0.2-0.4c0-0.1,0.1-0.3,0.2-0.4C11.6,43.4,11.7,43.3,11.9,43.3z"/>
	<linearGradient id="SVGID_46_" gradientUnits="userSpaceOnUse" x1="12.9481" y1="46.1982" x2="16.0938" y2="46.1982">
		<stop  offset="0" style="stop-color:#8E181C"/>
		<stop  offset="5.562532e-02" style="stop-color:#961A1E"/>
		<stop  offset="0.3097" style="stop-color:#B71F27"/>
		<stop  offset="0.5566" style="stop-color:#D0232F"/>
		<stop  offset="0.7912" style="stop-color:#E02533"/>
		<stop  offset="1" style="stop-color:#E62635"/>
	</linearGradient>
	<path class="st47" d="M15,46.3l1.1,0c0,0.4-0.2,0.8-0.5,1.1c-0.3,0.3-0.7,0.4-1.1,0.4c-0.4,0-0.8-0.2-1.1-0.5
		c-0.3-0.3-0.5-0.7-0.5-1.1c0-0.4,0.2-0.8,0.5-1.1c0.3-0.3,0.7-0.5,1.1-0.5c0.4,0,0.7,0.1,1,0.4c0.3,0.2,0.5,0.5,0.5,0.9l-1.1,0
		c-0.1-0.1-0.2-0.2-0.4-0.2c-0.1,0-0.2,0-0.3,0.1c-0.1,0.1-0.1,0.2-0.1,0.3c0,0.1,0,0.2,0.1,0.3c0.1,0.1,0.2,0.1,0.3,0.1
		C14.8,46.7,14.9,46.5,15,46.3z"/>
	<linearGradient id="SVGID_47_" gradientUnits="userSpaceOnUse" x1="16.4216" y1="46.195" x2="19.5736" y2="46.195">
		<stop  offset="0" style="stop-color:#8E181C"/>
		<stop  offset="5.562532e-02" style="stop-color:#961A1E"/>
		<stop  offset="0.3097" style="stop-color:#B71F27"/>
		<stop  offset="0.5566" style="stop-color:#D0232F"/>
		<stop  offset="0.7912" style="stop-color:#E02533"/>
		<stop  offset="1" style="stop-color:#E62635"/>
	</linearGradient>
	<path class="st48" d="M19.6,46.4h-1.7c0-0.1,0-0.2,0-0.2c0-0.1,0-0.2,0.1-0.3h0.6c0-0.2-0.2-0.3-0.4-0.3c-0.1,0-0.3,0.1-0.3,0.2
		c-0.1,0.1-0.1,0.3-0.1,0.5c0,0.2,0,0.4,0.1,0.5c0.1,0.1,0.2,0.2,0.3,0.2c0.1,0,0.2-0.1,0.3-0.2l0.6,0.8c-0.3,0.2-0.6,0.4-1,0.4
		c-0.4,0-0.8-0.2-1.1-0.5c-0.3-0.3-0.5-0.7-0.5-1.1c0-0.4,0.2-0.8,0.5-1.1c0.3-0.3,0.7-0.5,1.1-0.5c0.4,0,0.8,0.1,1.1,0.4
		c0.3,0.3,0.4,0.7,0.4,1.1C19.6,46.2,19.6,46.3,19.6,46.4z"/>
	<linearGradient id="SVGID_48_" gradientUnits="userSpaceOnUse" x1="21.9786" y1="45.64" x2="25.2637" y2="45.64">
		<stop  offset="0" style="stop-color:#8E181C"/>
		<stop  offset="5.562532e-02" style="stop-color:#961A1E"/>
		<stop  offset="0.3097" style="stop-color:#B71F27"/>
		<stop  offset="0.5566" style="stop-color:#D0232F"/>
		<stop  offset="0.7912" style="stop-color:#E02533"/>
		<stop  offset="1" style="stop-color:#E62635"/>
	</linearGradient>
	<path class="st49" d="M24.1,45.9h0.8c0,0.1,0,0.2,0,0.2c0,0.2-0.1,0.5-0.2,0.7l0.6,0.9h-1.1l-0.1-0.1c-0.2,0.2-0.5,0.2-0.7,0.2
		c-0.4,0-0.7-0.1-1-0.4c-0.3-0.3-0.4-0.6-0.4-0.9c0-0.4,0.2-0.8,0.5-1.1c-0.2-0.2-0.3-0.5-0.3-0.8c0-0.3,0.1-0.6,0.3-0.8
		c0.2-0.2,0.5-0.4,0.8-0.4c0.3,0,0.6,0.1,0.8,0.3c0.2,0.2,0.3,0.5,0.3,0.8c0,0,0,0.1,0,0.2h-0.9c0-0.2-0.1-0.3-0.2-0.3
		c-0.1,0-0.2,0.1-0.2,0.2c0,0,0,0.1,0.1,0.1L24.1,45.9z M23.1,46.2c-0.1,0.1-0.1,0.2-0.1,0.3c0,0.1,0,0.2,0.1,0.2s0.1,0.1,0.2,0.1
		c0.1,0,0.1,0,0.2-0.1L23.1,46.2z"/>
	<linearGradient id="SVGID_49_" gradientUnits="userSpaceOnUse" x1="27.9579" y1="45.64" x2="31.2614" y2="45.64">
		<stop  offset="0" style="stop-color:#8E181C"/>
		<stop  offset="5.562532e-02" style="stop-color:#961A1E"/>
		<stop  offset="0.3097" style="stop-color:#B71F27"/>
		<stop  offset="0.5566" style="stop-color:#D0232F"/>
		<stop  offset="0.7912" style="stop-color:#E02533"/>
		<stop  offset="1" style="stop-color:#E62635"/>
	</linearGradient>
	<path class="st50" d="M29.2,44.7v3H28v-4.1h1.6c0.5,0,0.9,0.1,1.1,0.4c0.3,0.3,0.4,0.6,0.4,1c0,0.4-0.2,0.8-0.5,1.1l0.7,1.7H30
		l-0.6-1.3v-1.1h0.1c0.3,0,0.4-0.1,0.4-0.3c0-0.2-0.1-0.3-0.4-0.3H29.2z"/>
	<linearGradient id="SVGID_50_" gradientUnits="userSpaceOnUse" x1="31.4215" y1="45.7249" x2="34.5735" y2="45.7249">
		<stop  offset="0" style="stop-color:#8E181C"/>
		<stop  offset="5.562532e-02" style="stop-color:#961A1E"/>
		<stop  offset="0.3097" style="stop-color:#B71F27"/>
		<stop  offset="0.5566" style="stop-color:#D0232F"/>
		<stop  offset="0.7912" style="stop-color:#E02533"/>
		<stop  offset="1" style="stop-color:#E62635"/>
	</linearGradient>
	<path class="st51" d="M34.6,46.4h-1.7c0-0.1,0-0.2,0-0.2c0-0.1,0-0.2,0.1-0.3h0.6c0-0.2-0.2-0.3-0.4-0.3c-0.1,0-0.3,0.1-0.3,0.2
		c-0.1,0.1-0.1,0.3-0.1,0.5c0,0.2,0,0.4,0.1,0.5c0.1,0.1,0.2,0.2,0.3,0.2c0.1,0,0.2-0.1,0.3-0.2l0.6,0.8c-0.3,0.2-0.6,0.4-1,0.4
		c-0.4,0-0.8-0.2-1.1-0.5c-0.3-0.3-0.5-0.7-0.5-1.1c0-0.4,0.2-0.8,0.5-1.1c0.3-0.3,0.7-0.5,1.1-0.5c0.4,0,0.8,0.1,1.1,0.4
		c0.3,0.3,0.4,0.7,0.4,1.1C34.6,46.2,34.6,46.3,34.6,46.4z M33.3,43.7H34l-0.7,0.7h-0.6L33.3,43.7z"/>
	<linearGradient id="SVGID_51_" gradientUnits="userSpaceOnUse" x1="34.9649" y1="46.7275" x2="38.1285" y2="46.7275">
		<stop  offset="0" style="stop-color:#8E181C"/>
		<stop  offset="5.562532e-02" style="stop-color:#961A1E"/>
		<stop  offset="0.3097" style="stop-color:#B71F27"/>
		<stop  offset="0.5566" style="stop-color:#D0232F"/>
		<stop  offset="0.7912" style="stop-color:#E02533"/>
		<stop  offset="1" style="stop-color:#E62635"/>
	</linearGradient>
	<path class="st52" d="M36.1,48.8H35v-2.5c0-0.5,0.1-0.8,0.4-1.1c0.1-0.2,0.3-0.3,0.5-0.4c0.2-0.1,0.4-0.1,0.7-0.1
		c0.5,0,0.8,0.2,1.1,0.5c0.3,0.3,0.5,0.7,0.5,1.1c0,0.4-0.2,0.8-0.5,1.1c-0.3,0.3-0.7,0.5-1.1,0.5c-0.1,0-0.2,0-0.3,0v-1.3
		c0.1,0.1,0.2,0.1,0.3,0.1c0.1,0,0.2,0,0.3-0.1s0.1-0.2,0.1-0.3c0-0.1,0-0.2-0.1-0.3c-0.1-0.1-0.2-0.1-0.3-0.1
		c-0.3,0-0.4,0.2-0.4,0.6V48.8z"/>
	<linearGradient id="SVGID_52_" gradientUnits="userSpaceOnUse" x1="38.4594" y1="46.1995" x2="41.6172" y2="46.1995">
		<stop  offset="0" style="stop-color:#8E181C"/>
		<stop  offset="5.562532e-02" style="stop-color:#961A1E"/>
		<stop  offset="0.3097" style="stop-color:#B71F27"/>
		<stop  offset="0.5566" style="stop-color:#D0232F"/>
		<stop  offset="0.7912" style="stop-color:#E02533"/>
		<stop  offset="1" style="stop-color:#E62635"/>
	</linearGradient>
	<path class="st53" d="M40.3,46.6v1.2c-0.1,0-0.2,0-0.3,0c-0.5,0-0.8-0.1-1.1-0.4c-0.3-0.3-0.5-0.7-0.5-1.1c0-0.4,0.2-0.8,0.5-1.1
		c0.3-0.3,0.7-0.5,1.1-0.5c0.5,0,0.9,0.1,1.2,0.4c0.3,0.3,0.4,0.7,0.4,1.2v1.5h-1.1v-1.4c0-0.2,0-0.3-0.1-0.4
		c-0.1-0.1-0.2-0.1-0.3-0.1c-0.1,0-0.2,0-0.3,0.1c-0.1,0.1-0.1,0.2-0.1,0.3c0,0.1,0,0.2,0.1,0.3c0.1,0.1,0.2,0.1,0.3,0.1
		C40.1,46.7,40.2,46.6,40.3,46.6z"/>
	<linearGradient id="SVGID_53_" gradientUnits="userSpaceOnUse" x1="42.2781" y1="46.1664" x2="43.9375" y2="46.1664">
		<stop  offset="0" style="stop-color:#8E181C"/>
		<stop  offset="5.562532e-02" style="stop-color:#961A1E"/>
		<stop  offset="0.3097" style="stop-color:#B71F27"/>
		<stop  offset="0.5566" style="stop-color:#D0232F"/>
		<stop  offset="0.7912" style="stop-color:#E02533"/>
		<stop  offset="1" style="stop-color:#E62635"/>
	</linearGradient>
	<path class="st54" d="M43.9,44.7v1.2c-0.1,0-0.2-0.1-0.2-0.1c-0.2,0-0.3,0.2-0.3,0.5v1.4h-1.1v-1.7c0-0.4,0.1-0.8,0.4-1
		s0.6-0.4,1-0.4C43.7,44.6,43.8,44.6,43.9,44.7z"/>
	<linearGradient id="SVGID_54_" gradientUnits="userSpaceOnUse" x1="44.1043" y1="46.1995" x2="47.2621" y2="46.1995">
		<stop  offset="0" style="stop-color:#8E181C"/>
		<stop  offset="5.562532e-02" style="stop-color:#961A1E"/>
		<stop  offset="0.3097" style="stop-color:#B71F27"/>
		<stop  offset="0.5566" style="stop-color:#D0232F"/>
		<stop  offset="0.7912" style="stop-color:#E02533"/>
		<stop  offset="1" style="stop-color:#E62635"/>
	</linearGradient>
	<path class="st55" d="M46,46.6v1.2c-0.1,0-0.2,0-0.3,0c-0.5,0-0.8-0.1-1.1-0.4c-0.3-0.3-0.5-0.7-0.5-1.1c0-0.4,0.2-0.8,0.5-1.1
		c0.3-0.3,0.7-0.5,1.1-0.5c0.5,0,0.9,0.1,1.2,0.4c0.3,0.3,0.4,0.7,0.4,1.2v1.5h-1.1v-1.4c0-0.2,0-0.3-0.1-0.4
		c-0.1-0.1-0.2-0.1-0.3-0.1c-0.1,0-0.2,0-0.3,0.1c-0.1,0.1-0.1,0.2-0.1,0.3c0,0.1,0,0.2,0.1,0.3c0.1,0.1,0.2,0.1,0.3,0.1
		C45.8,46.7,45.9,46.6,46,46.6z"/>
	<linearGradient id="SVGID_55_" gradientUnits="userSpaceOnUse" x1="47.7992" y1="45.6626" x2="49.4645" y2="45.6626">
		<stop  offset="0" style="stop-color:#8E181C"/>
		<stop  offset="5.562532e-02" style="stop-color:#961A1E"/>
		<stop  offset="0.3097" style="stop-color:#B71F27"/>
		<stop  offset="0.5566" style="stop-color:#D0232F"/>
		<stop  offset="0.7912" style="stop-color:#E02533"/>
		<stop  offset="1" style="stop-color:#E62635"/>
	</linearGradient>
	<path class="st56" d="M48.9,43.6v1.2h0.5v1.2h-0.5c0,0.2,0,0.4,0.1,0.5c0.1,0.1,0.2,0.1,0.4,0.1v1.2c-0.1,0-0.1,0-0.1,0
		c-0.3,0-0.5-0.1-0.7-0.2c-0.2-0.1-0.4-0.3-0.5-0.5c-0.2-0.3-0.3-0.6-0.3-1v-2.5H48.9z"/>
	<linearGradient id="SVGID_56_" gradientUnits="userSpaceOnUse" x1="50.0011" y1="45.5232" x2="51.1391" y2="45.5232">
		<stop  offset="0" style="stop-color:#8E181C"/>
		<stop  offset="5.562532e-02" style="stop-color:#961A1E"/>
		<stop  offset="0.3097" style="stop-color:#B71F27"/>
		<stop  offset="0.5566" style="stop-color:#D0232F"/>
		<stop  offset="0.7912" style="stop-color:#E02533"/>
		<stop  offset="1" style="stop-color:#E62635"/>
	</linearGradient>
	<path class="st57" d="M51.1,44.7v3H50v-3H51.1z M50.6,43.3c0.2,0,0.3,0.1,0.4,0.2s0.2,0.2,0.2,0.4c0,0.2-0.1,0.3-0.2,0.4
		c-0.1,0.1-0.2,0.2-0.4,0.2s-0.3-0.1-0.4-0.2C50.1,44.2,50,44,50,43.9c0-0.1,0.1-0.3,0.2-0.4C50.3,43.4,50.4,43.3,50.6,43.3z"/>
	<linearGradient id="SVGID_57_" gradientUnits="userSpaceOnUse" x1="51.6184" y1="46.1966" x2="54.8004" y2="46.1966">
		<stop  offset="0" style="stop-color:#8E181C"/>
		<stop  offset="5.562532e-02" style="stop-color:#961A1E"/>
		<stop  offset="0.3097" style="stop-color:#B71F27"/>
		<stop  offset="0.5566" style="stop-color:#D0232F"/>
		<stop  offset="0.7912" style="stop-color:#E02533"/>
		<stop  offset="1" style="stop-color:#E62635"/>
	</linearGradient>
	<path class="st58" d="M53.2,44.6c0.4,0,0.8,0.2,1.1,0.5c0.3,0.3,0.5,0.7,0.5,1.1c0,0.4-0.2,0.8-0.5,1.1c-0.3,0.3-0.7,0.5-1.1,0.5
		c-0.4,0-0.8-0.2-1.1-0.5c-0.3-0.3-0.5-0.7-0.5-1.1c0-0.4,0.2-0.8,0.5-1.1C52.4,44.8,52.8,44.6,53.2,44.6z M53.2,45.7
		c-0.1,0-0.2,0-0.3,0.1c-0.1,0.1-0.1,0.2-0.1,0.3c0,0.1,0,0.2,0.1,0.3c0.1,0.1,0.2,0.1,0.3,0.1c0.1,0,0.2,0,0.3-0.1
		c0.1-0.1,0.1-0.2,0.1-0.3c0-0.1,0-0.2-0.1-0.3C53.4,45.8,53.3,45.7,53.2,45.7z"/>
	<linearGradient id="SVGID_58_" gradientUnits="userSpaceOnUse" x1="55.2734" y1="46.1664" x2="57.9703" y2="46.1664">
		<stop  offset="0" style="stop-color:#8E181C"/>
		<stop  offset="5.562532e-02" style="stop-color:#961A1E"/>
		<stop  offset="0.3097" style="stop-color:#B71F27"/>
		<stop  offset="0.5566" style="stop-color:#D0232F"/>
		<stop  offset="0.7912" style="stop-color:#E02533"/>
		<stop  offset="1" style="stop-color:#E62635"/>
	</linearGradient>
	<path class="st59" d="M58,47.7h-1.1V46c0-0.2-0.1-0.3-0.2-0.3c-0.1,0-0.2,0.1-0.2,0.3v1.7h-1.1V46c0-0.4,0.1-0.7,0.4-1
		c0.3-0.3,0.6-0.4,1-0.4c0.4,0,0.8,0.2,1,0.5c0.2,0.2,0.3,0.6,0.3,1V47.7z"/>
	<linearGradient id="SVGID_59_" gradientUnits="userSpaceOnUse" x1="60.018" y1="46.1995" x2="63.1758" y2="46.1995">
		<stop  offset="0" style="stop-color:#8E181C"/>
		<stop  offset="5.562532e-02" style="stop-color:#961A1E"/>
		<stop  offset="0.3097" style="stop-color:#B71F27"/>
		<stop  offset="0.5566" style="stop-color:#D0232F"/>
		<stop  offset="0.7912" style="stop-color:#E02533"/>
		<stop  offset="1" style="stop-color:#E62635"/>
	</linearGradient>
	<path class="st60" d="M61.9,46.6v1.2c-0.1,0-0.2,0-0.3,0c-0.5,0-0.8-0.1-1.1-0.4C60.2,47,60,46.7,60,46.2c0-0.4,0.2-0.8,0.5-1.1
		c0.3-0.3,0.7-0.5,1.1-0.5c0.5,0,0.9,0.1,1.2,0.4c0.3,0.3,0.4,0.7,0.4,1.2v1.5H62v-1.4c0-0.2,0-0.3-0.1-0.4
		c-0.1-0.1-0.2-0.1-0.3-0.1c-0.1,0-0.2,0-0.3,0.1c-0.1,0.1-0.1,0.2-0.1,0.3c0,0.1,0,0.2,0.1,0.3c0.1,0.1,0.2,0.1,0.3,0.1
		C61.7,46.7,61.8,46.6,61.9,46.6z"/>
	<linearGradient id="SVGID_60_" gradientUnits="userSpaceOnUse" x1="63.8367" y1="46.2708" x2="66.5336" y2="46.2708">
		<stop  offset="0" style="stop-color:#8E181C"/>
		<stop  offset="5.562532e-02" style="stop-color:#961A1E"/>
		<stop  offset="0.3097" style="stop-color:#B71F27"/>
		<stop  offset="0.5566" style="stop-color:#D0232F"/>
		<stop  offset="0.7912" style="stop-color:#E02533"/>
		<stop  offset="1" style="stop-color:#E62635"/>
	</linearGradient>
	<path class="st61" d="M63.8,44.7H65v1.7c0,0.2,0.1,0.3,0.2,0.3c0.1,0,0.2-0.1,0.2-0.3v-1.7h1.1v1.7c0,0.4-0.1,0.7-0.4,1
		c-0.3,0.3-0.6,0.4-1,0.4c-0.4,0-0.8-0.2-1-0.5c-0.2-0.2-0.3-0.6-0.3-1V44.7z"/>
	<linearGradient id="SVGID_61_" gradientUnits="userSpaceOnUse" x1="67.0707" y1="45.6626" x2="68.7359" y2="45.6626">
		<stop  offset="0" style="stop-color:#8E181C"/>
		<stop  offset="5.562532e-02" style="stop-color:#961A1E"/>
		<stop  offset="0.3097" style="stop-color:#B71F27"/>
		<stop  offset="0.5566" style="stop-color:#D0232F"/>
		<stop  offset="0.7912" style="stop-color:#E02533"/>
		<stop  offset="1" style="stop-color:#E62635"/>
	</linearGradient>
	<path class="st62" d="M68.2,43.6v1.2h0.5v1.2h-0.5c0,0.2,0,0.4,0.1,0.5c0.1,0.1,0.2,0.1,0.4,0.1v1.2c-0.1,0-0.1,0-0.1,0
		c-0.3,0-0.5-0.1-0.7-0.2c-0.2-0.1-0.4-0.3-0.5-0.5c-0.2-0.3-0.3-0.6-0.3-1v-2.5H68.2z"/>
	<linearGradient id="SVGID_62_" gradientUnits="userSpaceOnUse" x1="69.0879" y1="46.1966" x2="72.2699" y2="46.1966">
		<stop  offset="0" style="stop-color:#8E181C"/>
		<stop  offset="5.562532e-02" style="stop-color:#961A1E"/>
		<stop  offset="0.3097" style="stop-color:#B71F27"/>
		<stop  offset="0.5566" style="stop-color:#D0232F"/>
		<stop  offset="0.7912" style="stop-color:#E02533"/>
		<stop  offset="1" style="stop-color:#E62635"/>
	</linearGradient>
	<path class="st63" d="M70.7,44.6c0.4,0,0.8,0.2,1.1,0.5c0.3,0.3,0.5,0.7,0.5,1.1c0,0.4-0.2,0.8-0.5,1.1c-0.3,0.3-0.7,0.5-1.1,0.5
		c-0.4,0-0.8-0.2-1.1-0.5c-0.3-0.3-0.5-0.7-0.5-1.1c0-0.4,0.2-0.8,0.5-1.1C69.9,44.8,70.3,44.6,70.7,44.6z M70.7,45.7
		c-0.1,0-0.2,0-0.3,0.1c-0.1,0.1-0.1,0.2-0.1,0.3c0,0.1,0,0.2,0.1,0.3c0.1,0.1,0.2,0.1,0.3,0.1c0.1,0,0.2,0,0.3-0.1
		c0.1-0.1,0.1-0.2,0.1-0.3c0-0.1,0-0.2-0.1-0.3C70.9,45.8,70.8,45.7,70.7,45.7z"/>
	<linearGradient id="SVGID_63_" gradientUnits="userSpaceOnUse" x1="72.7429" y1="46.1677" x2="76.8929" y2="46.1677">
		<stop  offset="0" style="stop-color:#8E181C"/>
		<stop  offset="5.562532e-02" style="stop-color:#961A1E"/>
		<stop  offset="0.3097" style="stop-color:#B71F27"/>
		<stop  offset="0.5566" style="stop-color:#D0232F"/>
		<stop  offset="0.7912" style="stop-color:#E02533"/>
		<stop  offset="1" style="stop-color:#E62635"/>
	</linearGradient>
	<path class="st64" d="M76.9,47.7h-1.1v-1.6c0-0.1,0-0.2,0-0.3c0,0-0.1-0.1-0.1-0.1c-0.1,0-0.2,0.1-0.2,0.3v1.6h-1.1v-1.6
		c0-0.1,0-0.2,0-0.3c0,0-0.1-0.1-0.1-0.1c-0.1,0-0.2,0.1-0.2,0.3v1.6h-1.1v-1.9c0-0.3,0.1-0.6,0.3-0.9c0.2-0.2,0.5-0.4,0.8-0.4
		c0.3,0,0.6,0.1,0.9,0.4c0.3-0.3,0.6-0.4,0.9-0.4c0.4,0,0.7,0.1,0.9,0.4c0.2,0.2,0.3,0.5,0.3,0.9V47.7z"/>
	<linearGradient id="SVGID_64_" gradientUnits="userSpaceOnUse" x1="77.3722" y1="46.1966" x2="80.5542" y2="46.1966">
		<stop  offset="0" style="stop-color:#8E181C"/>
		<stop  offset="5.562532e-02" style="stop-color:#961A1E"/>
		<stop  offset="0.3097" style="stop-color:#B71F27"/>
		<stop  offset="0.5566" style="stop-color:#D0232F"/>
		<stop  offset="0.7912" style="stop-color:#E02533"/>
		<stop  offset="1" style="stop-color:#E62635"/>
	</linearGradient>
	<path class="st65" d="M79,44.6c0.4,0,0.8,0.2,1.1,0.5c0.3,0.3,0.5,0.7,0.5,1.1c0,0.4-0.2,0.8-0.5,1.1c-0.3,0.3-0.7,0.5-1.1,0.5
		c-0.4,0-0.8-0.2-1.1-0.5c-0.3-0.3-0.5-0.7-0.5-1.1c0-0.4,0.2-0.8,0.5-1.1C78.2,44.8,78.5,44.6,79,44.6z M79,45.7
		c-0.1,0-0.2,0-0.3,0.1c-0.1,0.1-0.1,0.2-0.1,0.3c0,0.1,0,0.2,0.1,0.3c0.1,0.1,0.2,0.1,0.3,0.1c0.1,0,0.2,0,0.3-0.1
		c0.1-0.1,0.1-0.2,0.1-0.3c0-0.1,0-0.2-0.1-0.3C79.2,45.8,79.1,45.7,79,45.7z"/>
	<linearGradient id="SVGID_65_" gradientUnits="userSpaceOnUse" x1="80.9609" y1="45.6702" x2="84.1245" y2="45.6702">
		<stop  offset="0" style="stop-color:#8E181C"/>
		<stop  offset="5.562532e-02" style="stop-color:#961A1E"/>
		<stop  offset="0.3097" style="stop-color:#B71F27"/>
		<stop  offset="0.5566" style="stop-color:#D0232F"/>
		<stop  offset="0.7912" style="stop-color:#E02533"/>
		<stop  offset="1" style="stop-color:#E62635"/>
	</linearGradient>
	<path class="st66" d="M82.1,43.6V46c0,0.4,0.1,0.6,0.4,0.6c0.1,0,0.2,0,0.3-0.1c0.1-0.1,0.1-0.2,0.1-0.3c0-0.1,0-0.2-0.1-0.3
		c-0.1-0.1-0.2-0.1-0.3-0.1c-0.1,0-0.2,0-0.3,0.1v-1.2c0.1,0,0.2,0,0.3,0c0.4,0,0.8,0.2,1.1,0.5c0.3,0.3,0.5,0.7,0.5,1.1
		c0,0.4-0.2,0.8-0.5,1.1c-0.3,0.3-0.7,0.5-1.1,0.5c-0.2,0-0.4,0-0.7-0.1c-0.2-0.1-0.4-0.2-0.5-0.4c-0.2-0.3-0.4-0.7-0.4-1.1v-2.5
		H82.1z"/>
	<linearGradient id="SVGID_66_" gradientUnits="userSpaceOnUse" x1="84.6218" y1="45.5232" x2="85.7597" y2="45.5232">
		<stop  offset="0" style="stop-color:#8E181C"/>
		<stop  offset="5.562532e-02" style="stop-color:#961A1E"/>
		<stop  offset="0.3097" style="stop-color:#B71F27"/>
		<stop  offset="0.5566" style="stop-color:#D0232F"/>
		<stop  offset="0.7912" style="stop-color:#E02533"/>
		<stop  offset="1" style="stop-color:#E62635"/>
	</linearGradient>
	<path class="st67" d="M85.8,44.7v3h-1.1v-3H85.8z M85.2,43.3c0.2,0,0.3,0.1,0.4,0.2s0.2,0.2,0.2,0.4c0,0.2-0.1,0.3-0.2,0.4
		c-0.1,0.1-0.2,0.2-0.4,0.2s-0.3-0.1-0.4-0.2c-0.1-0.1-0.2-0.2-0.2-0.4c0-0.1,0.1-0.3,0.2-0.4C84.9,43.4,85,43.3,85.2,43.3z"/>
	<linearGradient id="SVGID_67_" gradientUnits="userSpaceOnUse" x1="86.4237" y1="45.64" x2="87.5585" y2="45.64">
		<stop  offset="0" style="stop-color:#8E181C"/>
		<stop  offset="5.562532e-02" style="stop-color:#961A1E"/>
		<stop  offset="0.3097" style="stop-color:#B71F27"/>
		<stop  offset="0.5566" style="stop-color:#D0232F"/>
		<stop  offset="0.7912" style="stop-color:#E02533"/>
		<stop  offset="1" style="stop-color:#E62635"/>
	</linearGradient>
	<path class="st68" d="M87.6,43.6v4.1h-1.1v-4.1H87.6z"/>
	<linearGradient id="SVGID_68_" gradientUnits="userSpaceOnUse" x1="88.0558" y1="46.195" x2="91.2077" y2="46.195">
		<stop  offset="0" style="stop-color:#8E181C"/>
		<stop  offset="5.562532e-02" style="stop-color:#961A1E"/>
		<stop  offset="0.3097" style="stop-color:#B71F27"/>
		<stop  offset="0.5566" style="stop-color:#D0232F"/>
		<stop  offset="0.7912" style="stop-color:#E02533"/>
		<stop  offset="1" style="stop-color:#E62635"/>
	</linearGradient>
	<path class="st69" d="M91.2,46.4h-1.7c0-0.1,0-0.2,0-0.2c0-0.1,0-0.2,0.1-0.3h0.6c0-0.2-0.2-0.3-0.4-0.3c-0.1,0-0.3,0.1-0.3,0.2
		c-0.1,0.1-0.1,0.3-0.1,0.5c0,0.2,0,0.4,0.1,0.5c0.1,0.1,0.2,0.2,0.3,0.2c0.1,0,0.2-0.1,0.3-0.2l0.6,0.8c-0.3,0.2-0.6,0.4-1,0.4
		c-0.4,0-0.8-0.2-1.1-0.5c-0.3-0.3-0.5-0.7-0.5-1.1c0-0.4,0.2-0.8,0.5-1.1c0.3-0.3,0.7-0.5,1.1-0.5c0.4,0,0.8,0.1,1.1,0.4
		c0.3,0.3,0.4,0.7,0.4,1.1C91.2,46.2,91.2,46.3,91.2,46.4z"/>
</g>
<g>
	<linearGradient id="SVGID_69_" gradientUnits="userSpaceOnUse" x1="34.312" y1="19.4219" x2="68.2761" y2="19.4219">
		<stop  offset="0" style="stop-color:#8E181C"/>
		<stop  offset="5.562532e-02" style="stop-color:#961A1E"/>
		<stop  offset="0.3097" style="stop-color:#B71F27"/>
		<stop  offset="0.5566" style="stop-color:#D0232F"/>
		<stop  offset="0.7912" style="stop-color:#E02533"/>
		<stop  offset="1" style="stop-color:#E62635"/>
	</linearGradient>
	<path class="st70" d="M34.3,17.4c19.8-3.6,34,4.9,34,4.9s-12.6-5.2-31.9-3.2"/>
	<path class="st1" d="M0,27.4c15.4-10.6,42-8.4,52.5-12.3s23.3-13,42.9-14.2s52.9,13.9,63.3,9.8c-12.4,6.3-48,4.7-59,0.2
		c15.8,1.8,22.8,2,26.6-2.3c-22.4-9.5-52.9-4.9-62,5.5S32.6,12.5,0,27.4z"/>
	<path class="st1" d="M34.3,17.1c19.8-3.6,34,5.2,34,5.2s-10.7-5.3-30-3.2"/>
	<linearGradient id="SVGID_70_" gradientUnits="userSpaceOnUse" x1="1.984801e-04" y1="13.2527" x2="158.8028" y2="13.2527">
		<stop  offset="0" style="stop-color:#8E181C"/>
		<stop  offset="5.562532e-02" style="stop-color:#961A1E"/>
		<stop  offset="0.3097" style="stop-color:#B71F27"/>
		<stop  offset="0.5566" style="stop-color:#D0232F"/>
		<stop  offset="0.7912" style="stop-color:#E02533"/>
		<stop  offset="1" style="stop-color:#E62635"/>
	</linearGradient>
	<path class="st71" d="M0,26.5c15.4-10.6,42-8.4,52.5-12.3S75.9,1.2,95.5,0s52.9,13.9,63.3,9.8c-12.4,6.3-48,4.7-59,0.2
		c15.8,1.8,22.8,2,26.6-2.3c-22.4-9.5-52.9-4.9-62,5.5S32.6,11.6,0,26.5z"/>
</g>
</svg>
